<svg width="44" height="61" viewBox="0 0 44 61" fill="none" xmlns="http://www.w3.org/2000/svg">
<path fill-rule="evenodd" clip-rule="evenodd" d="M22 41C32.4932 41 41 32.4941 41 22C41 11.5059 32.4932 3 22 3C11.5068 3 3 11.5059 3 22C3 32.4941 11.5068 41 22 41ZM31.1777 42C38.7451 38.5215 44 30.875 44 22C44 9.84961 34.1504 0 22 0C9.84961 0 0 9.84961 0 22C0 30.875 5.25488 38.5215 12.8223 42H3C1.34277 42 0 43.3438 0 45V58C0 59.6562 1.34277 61 3 61H41C42.6572 61 44 59.6562 44 58V45C44 43.3438 42.6572 42 41 42H31.1777ZM30 20.0176C31.333 20.7871 31.333 22.7129 30 23.4824L19.125 29.7598C17.792 30.5293 16.125 29.5684 16.125 28.0293V15.4707C16.125 14.9316 16.3301 14.4629 16.6533 14.1152C17.252 13.4688 18.2588 13.2383 19.125 13.7383L30 20.0176ZM5.31152 57H12.9277L13.2002 55.0488H7.69629V45.9766H5.31152V57ZM14.9072 45.9766V57H17.291V45.9766H14.9072ZM25.6914 57L29.6914 45.9766H27.2598L25.5312 51.0957C25.0039 52.6641 24.5713 54.0078 24.3477 55.0488H24.3154C24.0596 53.9121 23.6914 52.5996 23.1797 51.0645L21.5479 45.9766H18.9873L22.875 57H25.6914ZM38.9004 50.2793H33.6201V47.9277H39.124V45.9766H31.3008V57H39.1562L39.4443 55.0488H33.6201V52.248H38.9004V50.2793Z" fill="#d9d9d988"/>
</svg>
