<svg width="903" height="625" viewBox="0 0 997 691" overflow="hidden" fill="none" xmlns="http://www.w3.org/2000/svg">
<path d="M810.527 528.059H970.759H995V690H805V534.043C805 528.512 808.685 527.749 810.527 528.059Z" fill="#C2C6AB" stroke="#686868" stroke-width="0.833661"/>
<path d="M810.854 511.859H976.154H995V1H985.039H935.402H811.534C805.826 1 804.816 5.30012 805.025 7.45018V506.124C805.025 511.863 808.911 512.339 810.854 511.859Z" fill="#C2C7AC" stroke="#686868" stroke-width="0.833661"/>
<path d="M641.191 535.802V690.036H507.74C507.941 642.7 508.223 546.155 507.74 538.667C507.257 531.179 511.967 530.112 514.382 530.515C551.821 529.712 628.148 528.107 633.945 528.107C639.742 528.107 641.191 533.237 641.191 535.802Z" fill="#C1C5AA"/>
<path d="M493.174 534.256V690.036H361.602C361.889 641.225 362.291 542.432 361.602 537.75C360.914 533.067 364.988 531.208 367.111 530.863C405.448 530.489 483.185 529.74 487.445 529.74C491.705 529.74 493.04 532.751 493.174 534.256Z" fill="#C1C5AA"/>
<path d="M345.088 537.75V690.036H217.039V538.545C217.039 532.465 219.497 531.597 220.726 531.923C258.383 531.584 334.963 530.906 340.03 530.906C345.098 530.906 345.514 535.469 345.088 537.75Z" fill="#C1C5AA"/>
<path d="M785.218 533.769V690.036H656.374V534.511C656.374 529.856 659.531 529.144 661.109 529.369C698.329 528.912 773.943 527.996 778.642 527.996C783.342 527.996 784.984 531.845 785.218 533.769Z" fill="#C1C5AA"/>
<path d="M641.191 535.802V690.036H507.74C507.941 642.7 508.223 546.155 507.74 538.667C507.257 531.179 511.967 530.112 514.382 530.515C551.821 529.712 628.148 528.107 633.945 528.107C639.742 528.107 641.191 533.237 641.191 535.802Z" stroke="#686868" stroke-width="0.833661"/>
<path d="M493.174 534.256V690.036H361.602C361.889 641.225 362.291 542.432 361.602 537.75C360.914 533.067 364.988 531.208 367.111 530.863C405.448 530.489 483.185 529.74 487.445 529.74C491.705 529.74 493.04 532.751 493.174 534.256Z" stroke="#686868" stroke-width="0.833661"/>
<path d="M345.088 537.75V690.036H217.039V538.545C217.039 532.465 219.497 531.597 220.726 531.923C258.383 531.584 334.963 530.906 340.03 530.906C345.098 530.906 345.514 535.469 345.088 537.75Z" stroke="#686868" stroke-width="0.833661"/>
<path d="M785.218 533.769V690.036H656.374V534.511C656.374 529.856 659.531 529.144 661.109 529.369C698.329 528.912 773.943 527.996 778.642 527.996C783.342 527.996 784.984 531.845 785.218 533.769Z" stroke="#686868" stroke-width="0.833661"/>
<path d="M511.876 512.112L511.876 274.75C511.876 273.023 513.276 271.623 515.003 271.623L780.94 271.623C782.667 271.623 784.067 273.023 784.067 274.75L784.067 509.876C784.067 511.592 782.683 512.987 780.967 513.002L515.029 515.238C513.292 515.253 511.876 513.849 511.876 512.112Z" fill="#E5E7DC" stroke="black" stroke-width="0.41683"/>
<path d="M511.876 512.112L511.876 274.75C511.876 273.023 513.276 271.623 515.003 271.623L780.94 271.623C782.667 271.623 784.067 273.023 784.067 274.75L784.067 509.876C784.067 511.592 782.683 512.987 780.967 513.002L515.029 515.238C513.292 515.253 511.876 513.849 511.876 512.112Z" stroke="black" stroke-width="0.41683"/>
<rect x="511.876" y="425.02" width="13.7554" height="21.2583" fill="#F0EBE7" stroke="black" stroke-width="0.41683"/>
<rect x="639.842" y="513.808" width="19.591" height="26.6771" transform="rotate(-90 639.842 513.808)" fill="#F0EBE7" stroke="black" stroke-width="0.41683"/>
<rect x="766.142" y="411.265" width="17.9237" height="19.1742" fill="#F0EBE7" stroke="black" stroke-width="0.41683"/>
<rect x="718.207" y="387.504" width="115.882" height="26.2603" transform="rotate(-90 718.207 387.504)" fill="#F0EBE7" stroke="black" stroke-width="0.41683"/>
<rect x="540.431" y="398.134" width="12.5049" height="26.6771" fill="white"/>
<path d="M525.217 446.425V424.844L711.211 425.216V386.891H723.506V373.124H739.527V386.891H747.724V411.076H766.353V430.797H734.311V445.309H666.129V494.424H640.048V446.425H525.217Z" fill="white"/>
<rect x="738.842" y="375.208" width="27.5108" height="11.6713" fill="white"/>
<path d="M711.439 387.593H723.273" stroke="#1E1E1E" stroke-width="0.443772"/>
<path d="M526.534 425.314L526.534 446.023" stroke="black" stroke-width="0.36981" stroke-linecap="round"/>
<path d="M527.643 425.314L527.643 446.023" stroke="black" stroke-width="0.36981" stroke-linecap="round"/>
<path d="M528.753 425.314L528.753 446.023" stroke="black" stroke-width="0.36981" stroke-linecap="round"/>
<path d="M530.232 425.315L530.232 446.024" stroke="black" stroke-width="0.36981" stroke-linecap="round"/>
<path d="M531.342 425.315L531.342 446.024" stroke="black" stroke-width="0.36981" stroke-linecap="round"/>
<path d="M532.452 425.315L532.452 446.024" stroke="black" stroke-width="0.36981" stroke-linecap="round"/>
<path d="M541.327 409.042L552.421 409.042" stroke="black" stroke-width="0.517734" stroke-linecap="round"/>
<path d="M541.327 407.933L552.421 407.933" stroke="black" stroke-width="0.517734" stroke-linecap="round"/>
<path d="M541.327 406.824L552.421 406.824" stroke="black" stroke-width="0.517734" stroke-linecap="round"/>
<path d="M541.327 411.261L552.421 411.261" stroke="black" stroke-width="0.517734" stroke-linecap="round"/>
<path d="M541.327 410.152L552.421 410.152" stroke="black" stroke-width="0.517734" stroke-linecap="round"/>
<path d="M541.327 413.48L552.421 413.48" stroke="black" stroke-width="0.517734" stroke-linecap="round"/>
<path d="M541.327 412.371L552.421 412.371" stroke="black" stroke-width="0.517734" stroke-linecap="round"/>
<path d="M752.857 412L752.857 430.491" stroke="black" stroke-width="0.517734" stroke-linecap="square"/>
<path d="M753.967 412L753.967 430.491" stroke="black" stroke-width="0.517734" stroke-linecap="square"/>
<path d="M755.077 412L755.077 430.491" stroke="black" stroke-width="0.517734" stroke-linecap="square"/>
<path d="M750.641 412.002L750.641 430.492" stroke="black" stroke-width="0.517734" stroke-linecap="square"/>
<path d="M751.751 412.001L751.751 430.492" stroke="black" stroke-width="0.517734" stroke-linecap="square"/>
<path d="M748.422 412.001L748.422 430.491" stroke="black" stroke-width="0.517734" stroke-linecap="square"/>
<path d="M749.53 412.001L749.53 430.491" stroke="black" stroke-width="0.517734" stroke-linecap="square"/>
<path d="M751.378 375.76L751.378 386.854" stroke="black" stroke-width="0.517734" stroke-linecap="square"/>
<path d="M752.487 375.76L752.487 386.854" stroke="black" stroke-width="0.517734" stroke-linecap="square"/>
<path d="M753.598 375.76L753.598 386.854" stroke="black" stroke-width="0.517734" stroke-linecap="square"/>
<path d="M749.161 375.759L749.161 386.854" stroke="black" stroke-width="0.517734" stroke-linecap="square"/>
<path d="M750.271 375.759L750.271 386.854" stroke="black" stroke-width="0.517734" stroke-linecap="square"/>
<path d="M746.941 375.759L746.941 386.854" stroke="black" stroke-width="0.517734" stroke-linecap="square"/>
<path d="M748.051 375.759L748.051 386.854" stroke="black" stroke-width="0.517734" stroke-linecap="square"/>
<path d="M666.692 490.034L639.706 490.034" stroke="black" stroke-width="0.36981" stroke-linecap="square"/>
<path d="M666.692 491.143L639.706 491.143" stroke="black" stroke-width="0.36981" stroke-linecap="square"/>
<path d="M666.692 492.252L639.706 492.252" stroke="black" stroke-width="0.36981" stroke-linecap="square"/>
<path d="M666.692 487.814L639.706 487.814" stroke="black" stroke-width="0.36981" stroke-linecap="square"/>
<path d="M666.692 488.923L639.706 488.923" stroke="black" stroke-width="0.36981" stroke-linecap="square"/>
<path d="M541.327 415.699L552.421 415.699" stroke="black" stroke-width="0.517734" stroke-linecap="round"/>
<path d="M541.327 414.59L552.421 414.59" stroke="black" stroke-width="0.517734" stroke-linecap="round"/>
<rect x="733.886" y="430.752" width="33.5048" height="63.8307" fill="#D9D9D9" stroke="black" stroke-width="0.517734"/>
<rect x="705.042" y="445.544" width="29.0671" height="37.9425" fill="#D9D9D9" stroke="black" stroke-width="0.517734"/>
<rect x="689.51" y="445.544" width="15.7539" height="37.9425" fill="#D9D9D9" stroke="black" stroke-width="0.517734"/>
<rect x="666.582" y="445.544" width="23.1501" height="37.9425" fill="#D9D9D9" stroke="black" stroke-width="0.517734"/>
<rect x="618.136" y="446.283" width="21.6709" height="37.2029" fill="#D9D9D9" stroke="black" stroke-width="0.517734"/>
<rect x="595.208" y="446.283" width="23.1501" height="37.2029" fill="#D9D9D9" stroke="black" stroke-width="0.517734"/>
<rect x="572.649" y="446.283" width="23.1501" height="37.2029" fill="#D9D9D9" stroke="black" stroke-width="0.517734"/>
<rect x="553.42" y="446.283" width="19.452" height="30.5463" fill="#D9D9D9" stroke="black" stroke-width="0.517734"/>
<rect x="552.68" y="395.248" width="20.9312" height="29.8067" fill="#D9D9D9" stroke="black" stroke-width="0.517734"/>
<path d="M617.988 387.112L573.389 387.112V406.084L573.389 425.055L617.988 425.055L617.988 387.112Z" fill="#D9D9D9" stroke="black" stroke-width="0.517734"/>
<rect x="617.766" y="387.112" width="22.4105" height="37.9425" fill="#D9D9D9" stroke="black" stroke-width="0.517734"/>
<rect x="639.955" y="392.29" width="26.8482" height="32.7652" fill="#D9D9D9" stroke="black" stroke-width="0.517734"/>
<rect x="-0.258867" y="0.258867" width="22.4105" height="37.9425" transform="matrix(-1 0 0 1 688.733 386.854)" fill="#D9D9D9" stroke="black" stroke-width="0.517734"/>
<rect x="688.769" y="387.112" width="22.4105" height="37.9425" fill="#D9D9D9" stroke="black" stroke-width="0.517734"/>
<path d="M723.273 387.593V373.54H738.805V375.389" stroke="black" stroke-width="0.517734"/>
<path d="M738.438 377.978L723.645 377.978" stroke="black" stroke-width="0.517734" stroke-linecap="square"/>
<path d="M738.438 379.087L723.645 379.087" stroke="black" stroke-width="0.517734" stroke-linecap="square"/>
<path d="M738.438 380.196L723.645 380.196" stroke="black" stroke-width="0.517734" stroke-linecap="square"/>
<path d="M738.438 376.867L723.645 376.867" stroke="black" stroke-width="0.517734" stroke-linecap="square"/>
<path d="M738.438 377.976L723.645 377.976" stroke="black" stroke-width="0.517734" stroke-linecap="square"/>
<path d="M738.438 375.758L723.645 375.758" stroke="black" stroke-width="0.517734" stroke-linecap="square"/>
<path d="M738.438 376.867L723.645 376.867" stroke="black" stroke-width="0.517734" stroke-linecap="square"/>
<rect x="-0.258867" y="0.258867" width="26.8482" height="12.0558" transform="matrix(-1 0 0 1 765.653 375.019)" stroke="black" stroke-width="0.517734"/>
<rect x="765.912" y="411.003" width="18.7124" height="23.8897" transform="rotate(180 765.912 411.003)" fill="#D9D9D9" stroke="black" stroke-width="0.517734"/>
<rect x="-0.258867" y="0.258867" width="18.7124" height="19.452" transform="matrix(-1 0 0 1 765.653 411.262)" stroke="black" stroke-width="0.517734"/>
<rect x="-0.258867" y="0.258867" width="12.0558" height="26.8482" transform="matrix(-1 0 0 1 552.643 397.949)" stroke="black" stroke-width="0.517734"/>
<path d="M639.326 483.746V494.101L666.692 494.101V483.746" stroke="black" stroke-width="0.443772" stroke-linecap="round"/>
<rect x="543.805" y="402.645" width="6.13884" height="13.535" stroke="black" stroke-width="0.517734"/>
<path d="M546.874 402.756V416.069" stroke="black" stroke-width="0.517734"/>
<rect x="747.199" y="378.977" width="15.0143" height="4.65961" stroke="black" stroke-width="0.517734"/>
<path d="M553.901 474.131C554.641 474.131 556.12 474.575 556.12 476.35" stroke="#9F0F0F" stroke-width="1.25049"/>
<path d="M573.13 480.788C573.87 480.788 575.349 481.232 575.349 483.007" stroke="#9F0F0F" stroke-width="1.25049"/>
<path d="M596.059 480.788C596.798 480.788 598.277 481.232 598.277 483.007" stroke="#9F0F0F" stroke-width="1.25049"/>
<path d="M618.378 481.085C619.118 481.085 620.597 481.529 620.597 483.304" stroke="#9F0F0F" stroke-width="1.25049"/>
<path d="M553.353 397.316C554.092 397.316 555.571 396.872 555.571 395.097" stroke="#9F0F0F" stroke-width="1.25049"/>
<path d="M573.778 389.932C574.518 389.932 575.997 389.488 575.997 387.713" stroke="#9F0F0F" stroke-width="1.25049"/>
<path d="M617.961 389.932C618.701 389.932 620.18 389.488 620.18 387.713" stroke="#9F0F0F" stroke-width="1.25049"/>
<path d="M640.053 394.934C640.792 394.934 642.272 394.49 642.272 392.715" stroke="#9F0F0F" stroke-width="1.25049"/>
<path d="M667.146 389.932C667.886 389.932 669.365 389.488 669.365 387.713" stroke="#9F0F0F" stroke-width="1.25049"/>
<path d="M688.821 389.932C689.561 389.932 691.04 389.488 691.04 387.713" stroke="#9F0F0F" stroke-width="1.25049"/>
<path d="M747.178 389.515C747.917 389.515 749.397 389.071 749.397 387.296" stroke="#9F0F0F" stroke-width="1.25049"/>
<path d="M666.646 480.788C667.385 480.788 668.864 481.231 668.864 483.006" stroke="#9F0F0F" stroke-width="1.25049"/>
<path d="M689.99 480.788C690.73 480.788 692.209 481.231 692.209 483.006" stroke="#9F0F0F" stroke-width="1.25049"/>
<path d="M705.521 480.788C706.261 480.788 707.74 481.231 707.74 483.006" stroke="#9F0F0F" stroke-width="1.25049"/>
<path d="M734.368 491.882C735.108 491.882 736.587 492.326 736.587 494.101" stroke="#9F0F0F" stroke-width="1.25049"/>
<path d="M540.587 424.945H525.425V446.394L553.161 446.394" stroke="#1E1E1E" stroke-width="0.443772"/>
<path d="M525.424 446.279V424.812H540.638V398.134H552.726V395.008H573.151V387.296H640.261V392.298H666.521V387.296H723.418V373.541H738.841V375.208H765.935V430.648H767.394V494.633H733.839V483.586H666.521V494.007H639.427V483.586H572.734V476.917H553.351V446.279H525.424Z" stroke="black" stroke-width="1.66732"/>
<path d="M706.328 425.02C706.328 423.978 706.912 421.894 709.246 421.894V425.02" stroke="black" stroke-width="0.41683"/>
<path d="M683.819 425.019C683.819 423.977 684.403 421.893 686.737 421.893V425.019" stroke="black" stroke-width="0.41683"/>
<path d="M661.312 425.02C661.312 423.978 661.895 421.894 664.229 421.894V425.02" stroke="black" stroke-width="0.41683"/>
<path d="M635.05 425.02C635.05 423.978 635.633 421.894 637.968 421.894V425.02" stroke="black" stroke-width="0.41683"/>
<path d="M612.542 425.02C612.542 423.978 613.126 421.894 615.46 421.894V425.02" stroke="black" stroke-width="0.41683"/>
<path d="M568.359 425.02C568.359 423.978 568.943 421.894 571.277 421.894V425.02" stroke="black" stroke-width="0.41683"/>
<path d="M568.359 446.279C568.359 447.321 568.943 449.405 571.277 449.405V446.279" stroke="black" stroke-width="0.41683"/>
<path d="M590.866 446.279C590.866 447.321 591.45 449.405 593.784 449.405V446.279" stroke="black" stroke-width="0.41683"/>
<path d="M613.792 446.279C613.792 447.321 614.376 449.405 616.71 449.405V446.279" stroke="black" stroke-width="0.41683"/>
<path d="M635.05 446.279C635.05 447.321 635.633 449.405 637.968 449.405V446.279" stroke="black" stroke-width="0.41683"/>
<path d="M685.487 445.445C685.487 446.487 686.071 448.571 688.405 448.571V445.445" stroke="black" stroke-width="0.41683"/>
<path d="M700.908 445.446C700.908 446.488 701.492 448.572 703.826 448.572V445.446" stroke="black" stroke-width="0.41683"/>
<path d="M729.254 445.446C729.254 446.488 729.837 448.572 732.172 448.572V445.446" stroke="black" stroke-width="0.41683"/>
<path d="M738.426 430.856C738.426 431.898 737.842 433.982 735.508 433.982V430.856" stroke="black" stroke-width="0.41683"/>
<path d="M747.388 406.471C748.43 406.471 750.515 407.054 750.515 409.389L747.388 409.389" stroke="black" stroke-width="0.41683"/>
<path d="M718.207 362.286L586.28 271.415L607.33 271.623L718.207 347.488V362.286Z" fill="#F0EBE7"/>
<line y1="-0.208415" x2="134.003" y2="-0.208415" transform="matrix(0.824308 0.566142 -0.566123 0.824321 607.122 271.415)" stroke="black" stroke-width="0.41683"/>
<line y1="-0.208415" x2="159.443" y2="-0.208415" transform="matrix(0.823501 0.567315 -0.567296 0.823514 586.28 271.831)" stroke="black" stroke-width="0.41683"/>
<path d="M775.106 424.395V416.892L771.354 420.643L775.106 424.395Z" fill="#D03400"/>
<path d="M649.222 502.344L656.725 502.344L652.973 498.593L649.222 502.344Z" fill="#0015D0"/>
<path d="M735.09 364.37L727.587 364.37L731.338 368.121L735.09 364.37Z" fill="#D03400"/>
<path d="M560.841 408.825V412.463H560.401V409.287H560.379L559.491 409.877V409.429L560.401 408.825H560.841ZM563.074 412.513C562.806 412.513 562.578 412.44 562.39 412.294C562.202 412.147 562.058 411.935 561.958 411.656C561.859 411.377 561.809 411.04 561.809 410.644C561.809 410.251 561.859 409.915 561.958 409.637C562.059 409.357 562.203 409.144 562.392 408.997C562.581 408.849 562.809 408.775 563.074 408.775C563.339 408.775 563.566 408.849 563.754 408.997C563.944 409.144 564.088 409.357 564.188 409.637C564.288 409.915 564.338 410.251 564.338 410.644C564.338 411.04 564.289 411.377 564.189 411.656C564.09 411.935 563.946 412.147 563.758 412.294C563.569 412.44 563.341 412.513 563.074 412.513ZM563.074 412.122C563.339 412.122 563.545 411.994 563.692 411.738C563.839 411.482 563.912 411.118 563.912 410.644C563.912 410.329 563.878 410.061 563.811 409.839C563.745 409.618 563.649 409.449 563.523 409.333C563.399 409.217 563.249 409.159 563.074 409.159C562.811 409.159 562.605 409.289 562.457 409.548C562.309 409.806 562.235 410.172 562.235 410.644C562.235 410.959 562.269 411.227 562.335 411.447C562.401 411.667 562.497 411.835 562.621 411.95C562.746 412.064 562.897 412.122 563.074 412.122ZM566.292 408.825V412.463H565.852V409.287H565.831L564.942 409.877V409.429L565.852 408.825H566.292Z" fill="black"/>
<path d="M560.841 460.876V464.514H560.401V461.338H560.379L559.491 461.927V461.48L560.401 460.876H560.841ZM563.166 460.876V464.514H562.726V461.338H562.704L561.816 461.927V461.48L562.726 460.876H563.166ZM565.349 464.563C565.141 464.563 564.953 464.522 564.786 464.439C564.619 464.356 564.485 464.242 564.385 464.098C564.284 463.954 564.229 463.789 564.219 463.604H564.646C564.662 463.769 564.737 463.905 564.87 464.013C565.003 464.119 565.163 464.173 565.349 464.173C565.498 464.173 565.631 464.138 565.747 464.068C565.864 463.998 565.956 463.902 566.022 463.78C566.09 463.657 566.124 463.518 566.124 463.363C566.124 463.204 566.089 463.062 566.019 462.938C565.95 462.813 565.855 462.714 565.735 462.641C565.614 462.569 565.476 462.533 565.321 462.531C565.209 462.53 565.095 462.547 564.978 462.583C564.861 462.617 564.764 462.662 564.688 462.716L564.276 462.666L564.497 460.876H566.387V461.267H564.866L564.738 462.34H564.759C564.834 462.28 564.928 462.231 565.04 462.192C565.153 462.153 565.27 462.133 565.392 462.133C565.614 462.133 565.813 462.187 565.987 462.293C566.162 462.399 566.299 462.543 566.399 462.727C566.5 462.91 566.55 463.12 566.55 463.356C566.55 463.588 566.498 463.795 566.394 463.977C566.291 464.158 566.149 464.302 565.967 464.407C565.786 464.511 565.58 464.563 565.349 464.563Z" fill="black"/>
<path d="M582.518 464.029V467.667H582.077V464.491H582.056L581.168 465.081V464.633L582.077 464.029H582.518ZM584.843 464.029V467.667H584.402V464.491H584.381L583.493 465.081V464.633L584.402 464.029H584.843ZM585.804 466.921V466.559L587.403 464.029H587.665V464.59H587.488L586.28 466.502V466.53H588.433V466.921H585.804ZM587.516 467.667V466.811V466.642V464.029H587.935V467.667H587.516Z" fill="black"/>
<path d="M605.027 464.029V467.667H604.586V464.491H604.565L603.677 465.081V464.633L604.586 464.029H605.027ZM607.352 464.029V467.667H606.911V464.491H606.89L606.002 465.081V464.633L606.911 464.029H607.352ZM609.627 467.717C609.393 467.717 609.184 467.676 609 467.596C608.818 467.515 608.673 467.404 608.565 467.26C608.458 467.116 608.4 466.948 608.391 466.758H608.838C608.848 466.875 608.888 466.976 608.959 467.061C609.03 467.145 609.123 467.21 609.238 467.257C609.353 467.303 609.48 467.326 609.62 467.326C609.776 467.326 609.915 467.299 610.036 467.244C610.156 467.19 610.251 467.114 610.32 467.017C610.389 466.92 610.423 466.807 610.423 466.679C610.423 466.546 610.39 466.428 610.323 466.326C610.257 466.223 610.16 466.142 610.032 466.084C609.904 466.026 609.748 465.997 609.563 465.997H609.272V465.607H609.563C609.708 465.607 609.834 465.58 609.943 465.528C610.053 465.476 610.139 465.403 610.201 465.308C610.264 465.213 610.295 465.102 610.295 464.974C610.295 464.851 610.268 464.744 610.213 464.653C610.159 464.561 610.082 464.49 609.982 464.44C609.884 464.389 609.768 464.363 609.634 464.363C609.509 464.363 609.39 464.386 609.279 464.432C609.169 464.477 609.079 464.543 609.009 464.63C608.939 464.715 608.901 464.818 608.895 464.939H608.469C608.476 464.748 608.534 464.581 608.641 464.438C608.749 464.293 608.89 464.181 609.064 464.1C609.239 464.02 609.432 463.979 609.641 463.979C609.866 463.979 610.059 464.025 610.22 464.116C610.381 464.206 610.505 464.325 610.592 464.473C610.678 464.621 610.721 464.781 610.721 464.953C610.721 465.158 610.667 465.332 610.56 465.477C610.453 465.621 610.308 465.721 610.124 465.777V465.805C610.354 465.843 610.534 465.941 610.663 466.099C610.792 466.255 610.856 466.448 610.856 466.679C610.856 466.877 610.802 467.055 610.695 467.212C610.588 467.369 610.442 467.492 610.258 467.582C610.073 467.672 609.863 467.717 609.627 467.717Z" fill="black"/>
<path d="M626.704 464.029V467.667H626.264V464.491H626.242L625.354 465.081V464.633L626.264 464.029H626.704ZM629.029 464.029V467.667H628.589V464.491H628.568L627.679 465.081V464.633L628.589 464.029H629.029ZM630.076 467.667V467.347L631.276 466.033C631.417 465.879 631.533 465.745 631.625 465.631C631.716 465.517 631.783 465.409 631.827 465.308C631.872 465.206 631.895 465.1 631.895 464.988C631.895 464.86 631.864 464.75 631.802 464.656C631.742 464.563 631.659 464.49 631.554 464.44C631.448 464.389 631.33 464.363 631.198 464.363C631.059 464.363 630.937 464.392 630.832 464.45C630.729 464.507 630.649 464.587 630.593 464.69C630.537 464.793 630.509 464.914 630.509 465.052H630.09C630.09 464.839 630.139 464.652 630.237 464.491C630.336 464.33 630.469 464.204 630.639 464.114C630.809 464.024 631.001 463.979 631.212 463.979C631.426 463.979 631.614 464.024 631.779 464.114C631.944 464.204 632.073 464.326 632.166 464.479C632.26 464.631 632.307 464.801 632.307 464.988C632.307 465.122 632.282 465.253 632.234 465.381C632.186 465.508 632.104 465.649 631.985 465.805C631.868 465.961 631.705 466.15 631.497 466.374L630.68 467.248V467.276H632.371V467.667H630.076Z" fill="black"/>
<path d="M675.852 464.029V467.667H675.411V464.491H675.39L674.502 465.081V464.633L675.411 464.029H675.852ZM678.177 464.029V467.667H677.736V464.491H677.715L676.827 465.081V464.633L677.736 464.029H678.177ZM680.502 464.029V467.667H680.062V464.491H680.04L679.152 465.081V464.633L680.062 464.029H680.502Z" fill="black"/>
<path d="M695.08 464.029V467.667H694.64V464.491H694.618L693.73 465.081V464.633L694.64 464.029H695.08ZM697.405 464.029V467.667H696.965V464.491H696.944L696.055 465.081V464.633L696.965 464.029H697.405ZM699.638 467.717C699.371 467.717 699.143 467.644 698.954 467.498C698.766 467.351 698.622 467.139 698.523 466.861C698.423 466.581 698.373 466.244 698.373 465.848C698.373 465.455 698.423 465.119 698.523 464.841C698.623 464.561 698.768 464.348 698.956 464.201C699.146 464.053 699.373 463.979 699.638 463.979C699.903 463.979 700.13 464.053 700.318 464.201C700.508 464.348 700.652 464.561 700.752 464.841C700.853 465.119 700.903 465.455 700.903 465.848C700.903 466.244 700.853 466.581 700.754 466.861C700.654 467.139 700.51 467.351 700.322 467.498C700.134 467.644 699.906 467.717 699.638 467.717ZM699.638 467.326C699.903 467.326 700.109 467.198 700.256 466.942C700.403 466.686 700.477 466.322 700.477 465.848C700.477 465.533 700.443 465.265 700.375 465.043C700.309 464.822 700.213 464.653 700.088 464.537C699.963 464.421 699.813 464.363 699.638 464.363C699.375 464.363 699.17 464.493 699.022 464.752C698.874 465.01 698.8 465.376 698.8 465.848C698.8 466.163 698.833 466.431 698.899 466.651C698.966 466.871 699.061 467.039 699.185 467.154C699.311 467.269 699.462 467.326 699.638 467.326Z" fill="black"/>
<path d="M717.571 464.029V467.667H717.131V464.491H717.11L716.222 465.081V464.633L717.131 464.029H717.571ZM719.804 467.717C719.537 467.717 719.309 467.644 719.12 467.498C718.932 467.351 718.788 467.139 718.689 466.861C718.589 466.581 718.54 466.244 718.54 465.848C718.54 465.455 718.589 465.119 718.689 464.841C718.789 464.561 718.934 464.348 719.122 464.201C719.312 464.053 719.539 463.979 719.804 463.979C720.07 463.979 720.296 464.053 720.485 464.201C720.674 464.348 720.819 464.561 720.918 464.841C721.019 465.119 721.069 465.455 721.069 465.848C721.069 466.244 721.019 466.581 720.92 466.861C720.82 467.139 720.676 467.351 720.488 467.498C720.3 467.644 720.072 467.717 719.804 467.717ZM719.804 467.326C720.07 467.326 720.276 467.198 720.422 466.942C720.569 466.686 720.643 466.322 720.643 465.848C720.643 465.533 720.609 465.265 720.541 465.043C720.475 464.822 720.379 464.653 720.254 464.537C720.129 464.421 719.98 464.363 719.804 464.363C719.541 464.363 719.336 464.493 719.188 464.752C719.04 465.01 718.966 465.376 718.966 465.848C718.966 466.163 718.999 466.431 719.065 466.651C719.132 466.871 719.227 467.039 719.351 467.154C719.477 467.269 719.628 467.326 719.804 467.326ZM722.902 463.979C723.051 463.981 723.2 464.009 723.35 464.065C723.499 464.12 723.635 464.213 723.758 464.342C723.881 464.47 723.98 464.644 724.055 464.866C724.129 465.087 724.167 465.365 724.167 465.699C724.167 466.022 724.136 466.309 724.074 466.56C724.014 466.81 723.926 467.021 723.812 467.193C723.698 467.364 723.559 467.495 723.396 467.584C723.234 467.672 723.05 467.717 722.845 467.717C722.642 467.717 722.46 467.676 722.3 467.596C722.141 467.514 722.011 467.401 721.909 467.257C721.808 467.111 721.744 466.942 721.716 466.75H722.149C722.188 466.917 722.266 467.055 722.382 467.164C722.499 467.272 722.653 467.326 722.845 467.326C723.126 467.326 723.347 467.203 723.51 466.958C723.673 466.713 723.755 466.367 723.755 465.919H723.726C723.66 466.019 723.581 466.104 723.49 466.177C723.399 466.249 723.298 466.305 723.186 466.344C723.075 466.383 722.957 466.402 722.831 466.402C722.623 466.402 722.431 466.351 722.257 466.248C722.084 466.144 721.946 466.001 721.842 465.82C721.739 465.637 721.687 465.429 721.687 465.194C721.687 464.972 721.737 464.768 721.836 464.583C721.937 464.397 722.078 464.249 722.259 464.139C722.441 464.029 722.656 463.976 722.902 463.979ZM722.902 464.37C722.753 464.37 722.618 464.408 722.499 464.482C722.38 464.556 722.286 464.655 722.216 464.781C722.148 464.905 722.113 465.043 722.113 465.194C722.113 465.346 722.147 465.484 722.213 465.608C722.28 465.731 722.372 465.83 722.488 465.903C722.605 465.975 722.739 466.012 722.888 466.012C723 466.012 723.105 465.99 723.202 465.946C723.299 465.901 723.384 465.84 723.456 465.763C723.53 465.685 723.587 465.596 723.629 465.498C723.67 465.399 723.691 465.295 723.691 465.187C723.691 465.045 723.656 464.912 723.588 464.788C723.52 464.663 723.427 464.563 723.307 464.486C723.189 464.409 723.054 464.37 722.902 464.37Z" fill="black"/>
<path d="M748.335 461.246V464.883H747.895V461.707H747.873L746.985 462.297V461.849L747.895 461.246H748.335ZM750.568 464.933C750.3 464.933 750.072 464.86 749.884 464.715C749.696 464.568 749.552 464.355 749.452 464.077C749.353 463.797 749.303 463.46 749.303 463.064C749.303 462.671 749.353 462.336 749.452 462.057C749.553 461.778 749.698 461.565 749.886 461.418C750.075 461.27 750.303 461.196 750.568 461.196C750.833 461.196 751.06 461.27 751.248 461.418C751.438 461.565 751.582 461.778 751.682 462.057C751.782 462.336 751.833 462.671 751.833 463.064C751.833 463.46 751.783 463.797 751.683 464.077C751.584 464.355 751.44 464.568 751.252 464.715C751.064 464.86 750.836 464.933 750.568 464.933ZM750.568 464.542C750.833 464.542 751.039 464.414 751.186 464.159C751.333 463.903 751.406 463.538 751.406 463.064C751.406 462.749 751.373 462.481 751.305 462.26C751.239 462.038 751.143 461.87 751.017 461.754C750.893 461.637 750.743 461.579 750.568 461.579C750.305 461.579 750.1 461.709 749.952 461.968C749.804 462.227 749.73 462.592 749.73 463.064C749.73 463.379 749.763 463.647 749.829 463.867C749.895 464.088 749.991 464.255 750.115 464.37C750.241 464.485 750.391 464.542 750.568 464.542ZM753.673 464.933C753.429 464.933 753.213 464.89 753.026 464.803C752.84 464.716 752.695 464.596 752.591 464.443C752.487 464.289 752.435 464.114 752.437 463.917C752.435 463.763 752.466 463.621 752.527 463.491C752.589 463.359 752.673 463.25 752.779 463.162C752.887 463.073 753.007 463.017 753.14 462.993V462.972C752.966 462.927 752.827 462.829 752.724 462.679C752.621 462.527 752.57 462.355 752.572 462.162C752.57 461.977 752.617 461.812 752.712 461.666C752.807 461.521 752.937 461.406 753.103 461.322C753.27 461.238 753.46 461.196 753.673 461.196C753.884 461.196 754.072 461.238 754.238 461.322C754.403 461.406 754.534 461.521 754.628 461.666C754.724 461.812 754.773 461.977 754.774 462.162C754.773 462.355 754.72 462.527 754.616 462.679C754.513 462.829 754.376 462.927 754.206 462.972V462.993C754.337 463.017 754.456 463.073 754.561 463.162C754.666 463.25 754.75 463.359 754.813 463.491C754.876 463.621 754.908 463.763 754.909 463.917C754.908 464.114 754.855 464.289 754.749 464.443C754.645 464.596 754.5 464.716 754.314 464.803C754.129 464.89 753.916 464.933 753.673 464.933ZM753.673 464.542C753.837 464.542 753.98 464.516 754.099 464.462C754.219 464.409 754.311 464.334 754.376 464.237C754.441 464.14 754.475 464.026 754.476 463.896C754.475 463.758 754.439 463.637 754.369 463.532C754.299 463.426 754.204 463.343 754.083 463.283C753.964 463.222 753.827 463.192 753.673 463.192C753.518 463.192 753.379 463.222 753.257 463.283C753.136 463.343 753.041 463.426 752.971 463.532C752.903 463.637 752.869 463.758 752.87 463.896C752.869 464.026 752.9 464.14 752.964 464.237C753.029 464.334 753.122 464.409 753.243 464.462C753.364 464.516 753.507 464.542 753.673 464.542ZM753.673 462.816C753.803 462.816 753.919 462.79 754.019 462.738C754.121 462.685 754.201 462.613 754.259 462.519C754.317 462.426 754.347 462.316 754.348 462.19C754.347 462.067 754.318 461.96 754.261 461.869C754.204 461.777 754.125 461.706 754.025 461.656C753.924 461.605 753.807 461.579 753.673 461.579C753.537 461.579 753.418 461.605 753.316 461.656C753.214 461.706 753.135 461.777 753.08 461.869C753.024 461.96 752.997 462.067 752.998 462.19C752.997 462.316 753.025 462.426 753.081 462.519C753.139 462.613 753.219 462.685 753.321 462.738C753.423 462.79 753.54 462.816 753.673 462.816Z" fill="black"/>
<path d="M753.403 398.191V401.829H752.962V398.653H752.941L752.053 399.243V398.795L752.962 398.191H753.403ZM755.635 401.879C755.368 401.879 755.14 401.806 754.951 401.66C754.763 401.514 754.619 401.301 754.52 401.023C754.42 400.743 754.371 400.406 754.371 400.01C754.371 399.617 754.42 399.281 754.52 399.003C754.62 398.724 754.765 398.51 754.953 398.364C755.143 398.216 755.37 398.142 755.635 398.142C755.901 398.142 756.127 398.216 756.316 398.364C756.505 398.51 756.65 398.724 756.749 399.003C756.85 399.281 756.9 399.617 756.9 400.01C756.9 400.406 756.85 400.743 756.751 401.023C756.651 401.301 756.507 401.514 756.319 401.66C756.131 401.806 755.903 401.879 755.635 401.879ZM755.635 401.488C755.901 401.488 756.107 401.36 756.253 401.104C756.4 400.849 756.474 400.484 756.474 400.01C756.474 399.695 756.44 399.427 756.372 399.206C756.306 398.984 756.21 398.815 756.085 398.699C755.96 398.583 755.811 398.525 755.635 398.525C755.372 398.525 755.167 398.655 755.019 398.914C754.871 399.172 754.797 399.538 754.797 400.01C754.797 400.325 754.83 400.593 754.896 400.813C754.963 401.033 755.058 401.201 755.182 401.316C755.308 401.431 755.459 401.488 755.635 401.488ZM757.591 401.829L759.218 398.611V398.582H757.342V398.191H759.673V398.603L758.053 401.829H757.591Z" fill="black"/>
<path d="M651.073 408.825V412.463H650.633V409.287H650.612L649.723 409.877V409.429L650.633 408.825H651.073ZM653.306 412.513C653.039 412.513 652.811 412.44 652.622 412.294C652.434 412.147 652.29 411.935 652.191 411.656C652.091 411.377 652.042 411.04 652.042 410.644C652.042 410.251 652.091 409.915 652.191 409.637C652.291 409.357 652.436 409.144 652.624 408.997C652.814 408.849 653.041 408.775 653.306 408.775C653.571 408.775 653.798 408.849 653.987 408.997C654.176 409.144 654.32 409.357 654.42 409.637C654.521 409.915 654.571 410.251 654.571 410.644C654.571 411.04 654.521 411.377 654.422 411.656C654.322 411.935 654.178 412.147 653.99 412.294C653.802 412.44 653.574 412.513 653.306 412.513ZM653.306 412.122C653.571 412.122 653.778 411.994 653.924 411.738C654.071 411.482 654.145 411.118 654.145 410.644C654.145 410.329 654.111 410.061 654.043 409.839C653.977 409.618 653.881 409.449 653.756 409.333C653.631 409.217 653.481 409.159 653.306 409.159C653.043 409.159 652.838 409.289 652.69 409.548C652.542 409.806 652.468 410.172 652.468 410.644C652.468 410.959 652.501 411.227 652.567 411.447C652.634 411.667 652.729 411.835 652.853 411.95C652.979 412.064 653.13 412.122 653.306 412.122ZM655.161 411.717V411.355L656.759 408.825H657.022V409.386H656.845L655.637 411.298V411.326H657.79V411.717H655.161ZM656.873 412.463V411.607V411.438V408.825H657.292V412.463H656.873Z" fill="black"/>
<path d="M593.382 405.403V409.041H592.942V405.865H592.92L592.032 406.455V406.007L592.942 405.403H593.382ZM595.615 409.091C595.347 409.091 595.119 409.018 594.931 408.872C594.743 408.725 594.599 408.513 594.499 408.235C594.4 407.955 594.35 407.618 594.35 407.222C594.35 406.829 594.4 406.493 594.499 406.215C594.6 405.936 594.744 405.722 594.933 405.576C595.122 405.427 595.35 405.353 595.615 405.353C595.88 405.353 596.107 405.427 596.295 405.576C596.485 405.722 596.629 405.936 596.729 406.215C596.829 406.493 596.88 406.829 596.88 407.222C596.88 407.618 596.83 407.955 596.73 408.235C596.631 408.513 596.487 408.725 596.299 408.872C596.11 409.018 595.882 409.091 595.615 409.091ZM595.615 408.7C595.88 408.7 596.086 408.572 596.233 408.316C596.38 408.061 596.453 407.696 596.453 407.222C596.453 406.907 596.419 406.639 596.352 406.417C596.286 406.196 596.19 406.027 596.064 405.911C595.94 405.795 595.79 405.737 595.615 405.737C595.352 405.737 595.146 405.867 594.998 406.126C594.85 406.384 594.776 406.75 594.776 407.222C594.776 407.537 594.81 407.805 594.876 408.025C594.942 408.245 595.038 408.413 595.162 408.528C595.287 408.643 595.438 408.7 595.615 408.7ZM597.554 409.041V408.721L598.755 407.407C598.896 407.253 599.012 407.119 599.103 407.005C599.195 406.891 599.262 406.783 599.306 406.682C599.351 406.58 599.373 406.474 599.373 406.362C599.373 406.235 599.343 406.124 599.281 406.03C599.221 405.937 599.138 405.864 599.032 405.814C598.927 405.763 598.809 405.737 598.677 405.737C598.537 405.737 598.415 405.766 598.311 405.824C598.208 405.881 598.128 405.961 598.071 406.064C598.016 406.167 597.988 406.288 597.988 406.426H597.569C597.569 406.213 597.618 406.026 597.716 405.865C597.814 405.704 597.948 405.578 598.118 405.488C598.288 405.398 598.479 405.353 598.691 405.353C598.904 405.353 599.093 405.398 599.258 405.488C599.423 405.578 599.552 405.7 599.645 405.853C599.739 406.005 599.785 406.175 599.785 406.362C599.785 406.496 599.761 406.627 599.713 406.755C599.665 406.882 599.582 407.023 599.464 407.179C599.347 407.335 599.184 407.524 598.976 407.748L598.158 408.622V408.65H599.849V409.041H597.554Z" fill="black"/>
<path d="M626.249 405.403V409.041H625.809V405.865H625.787L624.899 406.455V406.007L625.809 405.403H626.249ZM628.482 409.091C628.214 409.091 627.986 409.018 627.798 408.872C627.61 408.725 627.466 408.513 627.367 408.235C627.267 407.955 627.217 407.618 627.217 407.222C627.217 406.829 627.267 406.493 627.367 406.215C627.467 405.936 627.612 405.722 627.8 405.576C627.989 405.427 628.217 405.353 628.482 405.353C628.747 405.353 628.974 405.427 629.162 405.576C629.352 405.722 629.496 405.936 629.596 406.215C629.696 406.493 629.747 406.829 629.747 407.222C629.747 407.618 629.697 407.955 629.597 408.235C629.498 408.513 629.354 408.725 629.166 408.872C628.978 409.018 628.75 409.091 628.482 409.091ZM628.482 408.7C628.747 408.7 628.953 408.572 629.1 408.316C629.247 408.061 629.32 407.696 629.32 407.222C629.32 406.907 629.287 406.639 629.219 406.417C629.153 406.196 629.057 406.027 628.931 405.911C628.807 405.795 628.657 405.737 628.482 405.737C628.219 405.737 628.014 405.867 627.866 406.126C627.718 406.384 627.644 406.75 627.644 407.222C627.644 407.537 627.677 407.805 627.743 408.025C627.809 408.245 627.905 408.413 628.029 408.528C628.155 408.643 628.306 408.7 628.482 408.7ZM631.651 409.091C631.416 409.091 631.207 409.05 631.024 408.97C630.841 408.889 630.696 408.778 630.589 408.634C630.482 408.49 630.424 408.322 630.415 408.132H630.862C630.872 408.249 630.912 408.35 630.983 408.435C631.054 408.519 631.147 408.585 631.262 408.631C631.377 408.677 631.504 408.7 631.644 408.7C631.8 408.7 631.939 408.673 632.059 408.618C632.18 408.564 632.275 408.488 632.344 408.391C632.412 408.294 632.447 408.181 632.447 408.053C632.447 407.92 632.413 407.802 632.347 407.7C632.281 407.597 632.184 407.516 632.056 407.458C631.928 407.4 631.772 407.371 631.587 407.371H631.296V406.981H631.587C631.731 406.981 631.858 406.954 631.967 406.902C632.077 406.85 632.163 406.777 632.225 406.682C632.287 406.587 632.319 406.476 632.319 406.348C632.319 406.225 632.291 406.118 632.237 406.027C632.183 405.936 632.106 405.864 632.006 405.814C631.908 405.763 631.792 405.737 631.658 405.737C631.532 405.737 631.414 405.76 631.303 405.806C631.193 405.851 631.103 405.917 631.033 406.004C630.963 406.089 630.925 406.192 630.919 406.313H630.493C630.5 406.122 630.557 405.955 630.665 405.812C630.773 405.667 630.914 405.555 631.088 405.474C631.263 405.394 631.455 405.353 631.665 405.353C631.89 405.353 632.083 405.399 632.244 405.49C632.405 405.58 632.529 405.699 632.615 405.847C632.702 405.995 632.745 406.155 632.745 406.327C632.745 406.532 632.691 406.706 632.583 406.851C632.477 406.995 632.332 407.095 632.148 407.151V407.179C632.378 407.217 632.557 407.315 632.686 407.473C632.815 407.629 632.88 407.822 632.88 408.053C632.88 408.251 632.826 408.429 632.718 408.586C632.612 408.743 632.466 408.866 632.281 408.956C632.097 409.046 631.887 409.091 631.651 409.091Z" fill="black"/>
<path d="M675.054 405.403V409.041H674.613V405.865H674.592L673.704 406.455V406.007L674.613 405.403H675.054ZM677.287 409.091C677.019 409.091 676.791 409.018 676.603 408.872C676.415 408.725 676.271 408.513 676.171 408.235C676.072 407.955 676.022 407.618 676.022 407.222C676.022 406.829 676.072 406.493 676.171 406.215C676.272 405.936 676.416 405.722 676.605 405.576C676.794 405.427 677.021 405.353 677.287 405.353C677.552 405.353 677.779 405.427 677.967 405.576C678.156 405.722 678.301 405.936 678.4 406.215C678.501 406.493 678.551 406.829 678.551 407.222C678.551 407.618 678.502 407.955 678.402 408.235C678.303 408.513 678.159 408.725 677.971 408.872C677.782 409.018 677.554 409.091 677.287 409.091ZM677.287 408.7C677.552 408.7 677.758 408.572 677.905 408.316C678.052 408.061 678.125 407.696 678.125 407.222C678.125 406.907 678.091 406.639 678.024 406.417C677.958 406.196 677.862 406.027 677.736 405.911C677.612 405.795 677.462 405.737 677.287 405.737C677.024 405.737 676.818 405.867 676.67 406.126C676.522 406.384 676.448 406.75 676.448 407.222C676.448 407.537 676.481 407.805 676.548 408.025C676.614 408.245 676.709 408.413 676.834 408.528C676.959 408.643 677.11 408.7 677.287 408.7ZM680.363 409.091C680.155 409.091 679.967 409.049 679.8 408.966C679.633 408.884 679.499 408.77 679.399 408.625C679.298 408.481 679.243 408.316 679.233 408.132H679.66C679.676 408.296 679.751 408.432 679.884 408.54C680.017 408.647 680.177 408.7 680.363 408.7C680.512 408.7 680.645 408.665 680.761 408.595C680.878 408.525 680.97 408.429 681.036 408.307C681.104 408.184 681.138 408.045 681.138 407.89C681.138 407.731 681.103 407.59 681.033 407.465C680.964 407.34 680.869 407.241 680.749 407.169C680.628 407.097 680.49 407.06 680.335 407.059C680.223 407.058 680.109 407.075 679.992 407.11C679.875 407.145 679.778 407.189 679.702 407.243L679.29 407.194L679.511 405.403H681.401V405.794H679.88L679.752 406.867H679.773C679.848 406.808 679.942 406.759 680.054 406.719C680.167 406.68 680.284 406.661 680.406 406.661C680.628 406.661 680.827 406.714 681.001 406.821C681.176 406.926 681.313 407.071 681.413 407.254C681.514 407.438 681.564 407.647 681.564 407.883C681.564 408.115 681.512 408.322 681.408 408.505C681.305 408.686 681.162 408.829 680.981 408.934C680.8 409.039 680.594 409.091 680.363 409.091Z" fill="black"/>
<path d="M697.253 405.403V409.041H696.813V405.865H696.791L695.903 406.455V406.007L696.813 405.403H697.253ZM699.486 409.091C699.218 409.091 698.99 409.018 698.802 408.872C698.614 408.725 698.47 408.513 698.37 408.235C698.271 407.955 698.221 407.618 698.221 407.222C698.221 406.829 698.271 406.493 698.37 406.215C698.471 405.936 698.616 405.722 698.804 405.576C698.993 405.427 699.221 405.353 699.486 405.353C699.751 405.353 699.978 405.427 700.166 405.576C700.356 405.722 700.5 405.936 700.6 406.215C700.7 406.493 700.751 406.829 700.751 407.222C700.751 407.618 700.701 407.955 700.601 408.235C700.502 408.513 700.358 408.725 700.17 408.872C699.981 409.018 699.754 409.091 699.486 409.091ZM699.486 408.7C699.751 408.7 699.957 408.572 700.104 408.316C700.251 408.061 700.324 407.696 700.324 407.222C700.324 406.907 700.291 406.639 700.223 406.417C700.157 406.196 700.061 406.027 699.935 405.911C699.811 405.795 699.661 405.737 699.486 405.737C699.223 405.737 699.018 405.867 698.87 406.126C698.722 406.384 698.648 406.75 698.648 407.222C698.648 407.537 698.681 407.805 698.747 408.025C698.813 408.245 698.909 408.413 699.033 408.528C699.158 408.643 699.309 408.7 699.486 408.7ZM702.633 409.091C702.484 409.088 702.335 409.06 702.186 409.005C702.037 408.951 701.9 408.859 701.777 408.73C701.654 408.6 701.555 408.424 701.481 408.203C701.406 407.98 701.369 407.701 701.369 407.364C701.369 407.042 701.399 406.757 701.459 406.508C701.52 406.258 701.607 406.048 701.722 405.877C701.837 405.706 701.976 405.576 702.138 405.487C702.301 405.398 702.485 405.353 702.69 405.353C702.894 405.353 703.075 405.394 703.234 405.476C703.394 405.557 703.524 405.669 703.625 405.814C703.725 405.958 703.79 406.124 703.82 406.313H703.387C703.346 406.149 703.268 406.014 703.152 405.906C703.036 405.798 702.882 405.744 702.69 405.744C702.408 405.744 702.186 405.867 702.024 406.112C701.863 406.357 701.782 406.701 701.781 407.144H701.809C701.876 407.043 701.954 406.957 702.046 406.886C702.138 406.814 702.24 406.759 702.351 406.719C702.462 406.68 702.58 406.661 702.704 406.661C702.913 406.661 703.104 406.713 703.276 406.817C703.449 406.92 703.588 407.063 703.692 407.245C703.796 407.426 703.848 407.634 703.848 407.869C703.848 408.094 703.798 408.3 703.697 408.487C703.597 408.673 703.455 408.821 703.273 408.931C703.092 409.04 702.879 409.093 702.633 409.091ZM702.633 408.7C702.783 408.7 702.916 408.663 703.035 408.588C703.154 408.513 703.249 408.413 703.317 408.288C703.387 408.162 703.422 408.023 703.422 407.869C703.422 407.718 703.388 407.582 703.321 407.458C703.255 407.334 703.163 407.235 703.046 407.162C702.929 407.088 702.797 407.052 702.648 407.052C702.535 407.052 702.43 407.074 702.333 407.119C702.236 407.163 702.151 407.223 702.077 407.3C702.005 407.377 701.948 407.465 701.907 407.565C701.866 407.663 701.845 407.767 701.845 407.876C701.845 408.02 701.879 408.155 701.946 408.281C702.015 408.406 702.108 408.508 702.227 408.585C702.346 408.661 702.482 408.7 702.633 408.7Z" fill="black"/>
<path d="M201.853 539.259V688.483H0.56543V542.722C0.56543 534.232 4.69238 531.943 6.75585 531.86H193.196C201.441 531.86 202.402 536.793 201.853 539.259Z" fill="#C2C6AB" stroke="#686868" stroke-width="0.833661"/>
<rect x="531.35" y="540.464" width="86.3" height="134.303" fill="#DDDDDD" stroke="black" stroke-width="0.7"/>
<rect x="237.099" y="540.418" width="85.4656" height="134.191" fill="#DDDDDD" stroke="black" stroke-width="0.7"/>
<path d="M87.3556 608.2H184.521V674.946H18.0219V540.755H87.0056V607.85V608.2H87.3556Z" fill="#DDDDDD" stroke="black" stroke-width="0.7"/>
<rect x="685.35" y="540.464" width="76.3" height="134.303" fill="#DDDDDD" stroke="black" stroke-width="0.7"/>
<rect x="836.312" y="101.778" width="76.702" height="213.233" fill="#DDDDDD" stroke="black" stroke-width="0.7"/>
<path d="M864.951 550.114L973 550.114L973 674.117H838V606.548H864.951V550.114Z" fill="#DDDDDD"/>
<path d="M864.951 550.114L973 550.114L973 674.117H838V606.548H864.951V550.114Z" fill="#DDDDDD"/>
<path d="M864.951 550.114L973 550.114L973 674.117H838V606.548H864.951V550.114Z" stroke="black" stroke-width="0.7"/>
<path d="M459.056 566.795L459.335 674.756L380.575 674.959L380.227 540.069L423.143 539.958L423.212 566.887L459.056 566.795Z" fill="#DDDDDD"/>
<path d="M459.056 566.795L459.335 674.756L380.575 674.959L380.227 540.069L423.143 539.958L423.212 566.887L459.056 566.795Z" fill="#DDDDDD"/>
<path d="M459.056 566.795L459.335 674.756L380.575 674.959L380.227 540.069L423.143 539.958L423.212 566.887L459.056 566.795Z" stroke="black" stroke-width="0.7"/>
<path d="M943.922 474.131L835.963 474.131L835.963 340.75L970.851 340.75L970.851 413.429L943.922 413.429L943.922 474.131Z" fill="#DDDDDD"/>
<path d="M943.922 474.131L835.963 474.131L835.963 340.75L970.851 340.75L970.851 413.429L943.922 413.429L943.922 474.131Z" fill="#DDDDDD"/>
<path d="M943.922 474.131L835.963 474.131L835.963 340.75L970.851 340.75L970.851 413.429L943.922 413.429L943.922 474.131Z" stroke="black" stroke-width="0.7"/>
<path d="M516.67 431.898L516.67 439.401L520.422 435.65L516.67 431.898Z" fill="#0015D0"/>
</svg>
