<svg width="903" height="625" viewBox="0 0 997 691" overflow="hidden" fill="none" xmlns="http://www.w3.org/2000/svg">
<path d="M810.483 528.121H972.397H996.892V696.045H804.897V534.326C804.897 528.59 808.621 527.799 810.483 528.121Z" fill="#C2C6AB" stroke="#686868" stroke-width="0.833661"/>
<path d="M810.361 512.195H973.209H991.775V0.60498H981.962H933.061H811.03C805.408 0.60498 804.413 4.91125 804.618 7.06439V506.452C804.618 512.199 808.447 512.675 810.361 512.195Z" fill="#C2C7AC" stroke="#686868" stroke-width="0.833661"/>
<path d="M641.162 535.78V690.01H507.71C507.912 642.675 508.194 546.132 507.71 538.644C507.227 531.156 511.937 530.09 514.353 530.492C551.792 529.69 628.119 528.084 633.916 528.084C639.713 528.084 641.162 533.214 641.162 535.78Z" fill="#C1C5AA"/>
<path d="M493.145 534.233V690.01H361.573C361.86 641.2 362.262 542.41 361.573 537.727C360.884 533.044 364.959 531.185 367.082 530.841C405.418 530.466 483.156 529.717 487.416 529.717C491.675 529.717 493.01 532.728 493.145 534.233Z" fill="#C1C5AA"/>
<path d="M345.059 537.727V690.01H217.01V538.523C217.01 532.442 219.468 531.574 220.697 531.901C258.354 531.562 334.934 530.884 340.001 530.884C345.069 530.884 345.484 535.446 345.059 537.727Z" fill="#C1C5AA"/>
<path d="M785.189 533.746V695.656H656.344V690.01V534.488C656.344 529.834 659.502 529.121 661.08 529.347C698.3 528.889 773.914 527.974 778.613 527.974C783.312 527.974 784.955 531.822 785.189 533.746Z" fill="#C1C5AA"/>
<path d="M641.162 535.78V690.01H507.71C507.912 642.675 508.194 546.132 507.71 538.644C507.227 531.156 511.937 530.09 514.353 530.492C551.792 529.69 628.119 528.084 633.916 528.084C639.713 528.084 641.162 533.214 641.162 535.78Z" stroke="#686868" stroke-width="0.833661"/>
<path d="M493.145 534.233V690.01H361.573C361.86 641.2 362.262 542.41 361.573 537.727C360.884 533.044 364.959 531.185 367.082 530.841C405.418 530.466 483.156 529.717 487.416 529.717C491.675 529.717 493.01 532.728 493.145 534.233Z" stroke="#686868" stroke-width="0.833661"/>
<path d="M345.059 537.727V690.01H217.01V538.523C217.01 532.442 219.468 531.574 220.697 531.901C258.354 531.562 334.934 530.884 340.001 530.884C345.069 530.884 345.484 535.446 345.059 537.727Z" stroke="#686868" stroke-width="0.833661"/>
<path d="M785.189 533.746V695.656H656.344V690.01V534.488C656.344 529.834 659.502 529.121 661.08 529.347C698.3 528.889 773.914 527.974 778.613 527.974C783.312 527.974 784.955 531.822 785.189 533.746Z" stroke="#686868" stroke-width="0.833661"/>
<path d="M514.998 515.216C513.261 515.231 511.845 513.827 511.845 512.09L511.845 274.733C511.845 273.007 513.245 271.607 514.971 271.607L780.909 271.607C782.636 271.607 784.035 273.007 784.035 274.733L784.035 509.853C784.035 511.57 782.652 512.965 780.935 512.979L514.998 515.216Z" fill="#E5E7DC" stroke="black" stroke-width="0.41683"/>
<rect x="511.845" y="425" width="13.7554" height="21.2583" fill="#F0EBE7" stroke="black" stroke-width="0.41683"/>
<rect x="639.811" y="513.785" width="19.591" height="26.6771" transform="rotate(-90 639.811 513.785)" fill="#F0EBE7" stroke="black" stroke-width="0.41683"/>
<rect x="766.111" y="411.245" width="17.9237" height="19.1742" fill="#F0EBE7" stroke="black" stroke-width="0.41683"/>
<rect x="718.176" y="387.485" width="115.879" height="26.2603" transform="rotate(-90 718.176 387.485)" fill="#F0EBE7" stroke="black" stroke-width="0.41683"/>
<path d="M718.176 362.267L586.249 271.398L607.299 271.607L718.176 347.47V362.267Z" fill="#F0EBE7"/>
<line x1="607.209" y1="271.227" x2="717.669" y2="347.09" stroke="black" stroke-width="0.41683"/>
<line x1="586.367" y1="271.643" x2="717.669" y2="362.095" stroke="black" stroke-width="0.41683"/>
<path d="M776.44 423.503V416L772.688 419.751L776.44 423.503Z" fill="#D03400"/>
<path d="M650.557 501.451L658.06 501.451L654.308 497.699L650.557 501.451Z" fill="#0015D0"/>
<path d="M735.063 364.351L727.561 364.351L731.312 368.103L735.063 364.351Z" fill="#D03400"/>
<path d="M201.824 539.236V688.457H0.537109V542.699C0.537109 534.209 4.66406 531.921 6.72753 531.838H193.167C201.412 531.838 202.374 536.77 201.824 539.236Z" fill="#C2C6AB" stroke="#686868" stroke-width="0.833661"/>
<rect x="531" y="540" width="86" height="135" fill="#DDDDDD"/>
<rect x="531" y="540" width="86" height="135" stroke="black"/>
<rect x="236.72" y="540.045" width="86.1656" height="134.888" fill="#DDDDDD"/>
<rect x="236.72" y="540.045" width="86.1656" height="134.888" stroke="black"/>
<path d="M17.6436 540.382H87.3273V607.826H184.843V675.269H17.6436V540.382Z" fill="#DDDDDD"/>
<path d="M17.6436 540.382H87.3273V607.826H184.843V675.269H17.6436V540.382Z" stroke="black"/>
<rect x="685" y="540" width="77" height="135" fill="#DDDDDD"/>
<rect x="685" y="540" width="77" height="135" stroke="black"/>
<rect x="835.936" y="101.416" width="77.402" height="213.928" fill="#DDDDDD"/>
<rect x="835.936" y="101.416" width="77.402" height="213.928" stroke="black"/>
<path d="M864.951 550L973 550L973 674H838V606.433H864.951V550Z" fill="#DDDDDD"/>
<path d="M864.951 550L973 550L973 674H838V606.433H864.951V550Z" stroke="black"/>
<path d="M459.026 566.771L459.304 674.73L380.545 674.933L380.196 540.046L423.112 539.935L423.182 566.864L459.026 566.771Z" fill="#DDDDDD"/>
<path d="M459.026 566.771L459.304 674.73L380.545 674.933L380.196 540.046L423.112 539.935L423.182 566.864L459.026 566.771Z" stroke="black"/>
<path d="M943.893 474.11L835.934 474.11L835.934 340.732L970.822 340.732L970.822 413.409L943.893 413.409L943.893 474.11Z" fill="#DDDDDD"/>
<path d="M943.893 474.11L835.934 474.11L835.934 340.732L970.822 340.732L970.822 413.409L943.893 413.409L943.893 474.11Z" stroke="black"/>
<path d="M639.975 514.04V493.943H667.173V483.979H734.008V495.118H767.327V430.254H766.046V411.328H783.888V513.059L639.975 514.04Z" fill="#D9D9D9" fill-opacity="0.6" stroke="black" stroke-width="0.41683"/>
<path d="M518 431.006L518 438.509L521.752 434.758L518 431.006Z" fill="#0015D0"/>
<path d="M525.158 424.647H512.211L511.879 515.39L640.025 513.73V483.63H572.853V477.322H553.82V445.783H525.158V424.647Z" fill="#D9D9D9" fill-opacity="0.6"/>
<rect x="539.576" y="397.894" width="12.4919" height="26.6493" fill="white"/>
<path d="M539.717 446.133V424.946H710.177V386.662H722.459H746.55L746.652 410.822H765.261V430.522H733.253V445.018H665.563V483.373H639.088V446.133H539.717Z" fill="white"/>
<rect x="737.779" y="374.991" width="27.4821" height="11.6591" fill="white"/>
<path d="M710.406 387.364H722.228" stroke="#1E1E1E" stroke-width="0.443309"/>
<path d="M540.472 408.791L551.554 408.791" stroke="black" stroke-width="0.517194" stroke-linecap="round"/>
<path d="M540.472 407.683L551.554 407.683" stroke="black" stroke-width="0.517194" stroke-linecap="round"/>
<path d="M540.472 406.574L551.554 406.574" stroke="black" stroke-width="0.517194" stroke-linecap="round"/>
<path d="M540.472 411.007L551.554 411.007" stroke="black" stroke-width="0.517194" stroke-linecap="round"/>
<path d="M540.472 409.899L551.554 409.899" stroke="black" stroke-width="0.517194" stroke-linecap="round"/>
<path d="M540.472 413.224L551.554 413.224" stroke="black" stroke-width="0.517194" stroke-linecap="round"/>
<path d="M540.472 412.116L551.554 412.116" stroke="black" stroke-width="0.517194" stroke-linecap="round"/>
<path d="M750.304 375.542L750.304 386.625" stroke="black" stroke-width="0.517194" stroke-linecap="square"/>
<path d="M751.412 375.542L751.412 386.625" stroke="black" stroke-width="0.517194" stroke-linecap="square"/>
<path d="M752.521 375.542L752.521 386.625" stroke="black" stroke-width="0.517194" stroke-linecap="square"/>
<path d="M748.086 375.542L748.086 386.625" stroke="black" stroke-width="0.517194" stroke-linecap="square"/>
<path d="M749.194 375.542L749.194 386.625" stroke="black" stroke-width="0.517194" stroke-linecap="square"/>
<path d="M745.871 375.542L745.871 386.625" stroke="black" stroke-width="0.517194" stroke-linecap="square"/>
<path d="M746.979 375.542L746.979 386.625" stroke="black" stroke-width="0.517194" stroke-linecap="square"/>
<path d="M540.472 415.44L551.554 415.44" stroke="black" stroke-width="0.517194" stroke-linecap="round"/>
<path d="M540.472 414.332L551.554 414.332" stroke="black" stroke-width="0.517194" stroke-linecap="round"/>
<rect x="732.829" y="430.475" width="33.4698" height="63.7626" fill="#D9D9D9" fill-opacity="0.22" stroke="black" stroke-width="0.517194"/>
<rect x="704.014" y="445.252" width="29.0367" height="37.9029" fill="#D9D9D9" fill-opacity="0.22" stroke="black" stroke-width="0.517194"/>
<rect x="688.499" y="445.252" width="15.7375" height="37.9029" fill="#D9D9D9" fill-opacity="0.22" stroke="black" stroke-width="0.517194"/>
<rect x="665.594" y="445.252" width="23.1259" height="37.9029" fill="#D9D9D9" fill-opacity="0.22" stroke="black" stroke-width="0.517194"/>
<rect x="617.2" y="445.992" width="21.6483" height="37.1641" fill="#D9D9D9" fill-opacity="0.22" stroke="black" stroke-width="0.517194"/>
<rect x="594.296" y="445.992" width="23.1259" height="37.1641" fill="#D9D9D9" fill-opacity="0.22" stroke="black" stroke-width="0.517194"/>
<rect x="571.762" y="445.992" width="23.1259" height="37.1641" fill="#D9D9D9" fill-opacity="0.22" stroke="black" stroke-width="0.517194"/>
<rect x="552.551" y="445.992" width="19.4317" height="30.5144" fill="#D9D9D9" fill-opacity="0.22" stroke="black" stroke-width="0.517194"/>
<rect x="616.831" y="386.884" width="22.3871" height="37.9029" fill="#D9D9D9" fill-opacity="0.4" stroke="black" stroke-width="0.517194"/>
<path d="M616.83 386.884L639.217 386.884L639.217 424.787L616.83 424.787L616.83 386.884Z" fill="#D9D9D9" fill-opacity="0.22" stroke="black" stroke-width="0.517194"/>
<rect x="638.996" y="392.055" width="26.8202" height="32.731" fill="#D9D9D9" fill-opacity="0.22" stroke="black" stroke-width="0.517194"/>
<rect x="-0.258597" y="0.258597" width="22.3871" height="37.9029" transform="matrix(-1 0 0 1 687.723 386.625)" fill="#D9D9D9" fill-opacity="0.22" stroke="black" stroke-width="0.517194"/>
<rect x="687.762" y="386.884" width="22.3871" height="37.9029" fill="#D9D9D9" fill-opacity="0.22" stroke="black" stroke-width="0.517194"/>
<rect x="-0.258597" y="0.258597" width="26.8202" height="12.0432" transform="matrix(-1 0 0 1 764.563 374.804)" stroke="black" stroke-width="0.517194"/>
<rect x="764.821" y="410.749" width="18.6929" height="23.8648" transform="rotate(180 764.821 410.749)" fill="#D9D9D9" fill-opacity="0.22" stroke="black" stroke-width="0.517194"/>
<rect x="-0.258597" y="0.258597" width="12.0432" height="26.8202" transform="matrix(-1 0 0 1 551.775 397.708)" stroke="black" stroke-width="0.517194"/>
<rect x="542.946" y="402.399" width="6.13244" height="13.5209" stroke="black" stroke-width="0.517194"/>
<path d="M546.013 402.51V415.81" stroke="black" stroke-width="0.517194"/>
<rect x="746.129" y="378.756" width="14.9986" height="4.65474" stroke="black" stroke-width="0.517194"/>
<path d="M639.106 483.892H665.733V493.771H639.106V483.892Z" fill="white" stroke="black" stroke-width="0.441379"/>
<path d="M525.221 424.971H539.356V446.182H525.221V424.971Z" fill="white" stroke="black" stroke-width="0.441379"/>
<path d="M553.031 473.809C553.77 473.809 555.248 474.252 555.248 476.026" stroke="#9F0F0F" stroke-width="1.24919"/>
<path d="M572.242 480.459C572.981 480.459 574.459 480.902 574.459 482.676" stroke="#9F0F0F" stroke-width="1.24919"/>
<path d="M595.146 480.459C595.885 480.459 597.363 480.902 597.363 482.676" stroke="#9F0F0F" stroke-width="1.24919"/>
<path d="M617.442 480.755C618.181 480.755 619.659 481.199 619.659 482.972" stroke="#9F0F0F" stroke-width="1.24919"/>
<path d="M617.025 389.699C617.764 389.699 619.242 389.256 619.242 387.483" stroke="#9F0F0F" stroke-width="1.24919"/>
<path d="M639.094 394.697C639.833 394.697 641.31 394.253 641.31 392.48" stroke="#9F0F0F" stroke-width="1.24919"/>
<path d="M666.16 389.699C666.899 389.699 668.377 389.256 668.377 387.483" stroke="#9F0F0F" stroke-width="1.24919"/>
<path d="M687.812 389.699C688.551 389.699 690.029 389.256 690.029 387.483" stroke="#9F0F0F" stroke-width="1.24919"/>
<path d="M746.108 389.284C746.847 389.284 748.325 388.84 748.325 387.067" stroke="#9F0F0F" stroke-width="1.24919"/>
<path d="M665.706 480.212C666.445 480.212 667.923 480.655 667.923 482.428" stroke="#9F0F0F" stroke-width="1.24919"/>
<path d="M688.979 480.459C689.718 480.459 691.196 480.902 691.196 482.676" stroke="#9F0F0F" stroke-width="1.24919"/>
<path d="M704.495 480.459C705.234 480.459 706.712 480.902 706.712 482.676" stroke="#9F0F0F" stroke-width="1.24919"/>
<path d="M722.116 373.221H737.856V386.447H722.116V373.221Z" fill="white" stroke="black" stroke-width="0.441379"/>
<path d="M539.785 445.987L539.785 424.543V397.893H551.861V394.77H572.264V387.067H639.304V392.064H665.537V387.067H722.375H737.781V374.992H764.847V430.372H766.304V494.289H732.785V483.255H665.537H638.471H571.848V476.592H552.485V445.987H539.785Z" fill="#D9D9D9" fill-opacity="0.22" stroke="black" stroke-width="1.66558"/>
<rect x="705.303" y="424.542" width="2.91477" height="0.416396" fill="white"/>
<path d="M705.303 424.751C705.303 423.71 705.886 421.628 708.218 421.628V424.751" stroke="black" stroke-width="0.416396"/>
<rect x="682.816" y="424.542" width="2.91477" height="0.416396" fill="white"/>
<path d="M682.816 424.751C682.816 423.71 683.399 421.628 685.731 421.628V424.751" stroke="black" stroke-width="0.416396"/>
<rect x="660.331" y="424.542" width="2.91477" height="0.416396" fill="white"/>
<path d="M660.331 424.75C660.331 423.709 660.914 421.627 663.246 421.627V424.75" stroke="black" stroke-width="0.416396"/>
<rect x="634.097" y="424.542" width="2.91477" height="0.416396" fill="white"/>
<path d="M634.097 424.75C634.097 423.709 634.68 421.627 637.011 421.627V424.75" stroke="black" stroke-width="0.416396"/>
<rect width="2.91477" height="0.416396" transform="matrix(1 0 0 -1 567.475 446.195)" fill="white"/>
<path d="M567.475 445.987C567.475 447.028 568.058 449.11 570.389 449.11V445.987" stroke="black" stroke-width="0.416396"/>
<rect width="2.91477" height="0.416396" transform="matrix(1 0 0 -1 589.96 446.195)" fill="white"/>
<path d="M589.96 445.987C589.96 447.028 590.543 449.11 592.875 449.11V445.987" stroke="black" stroke-width="0.416396"/>
<rect width="2.91477" height="0.416396" transform="matrix(1 0 0 -1 612.862 446.195)" fill="white"/>
<path d="M612.862 445.986C612.862 447.027 613.445 449.109 615.777 449.109V445.986" stroke="black" stroke-width="0.416396"/>
<rect width="2.91477" height="0.416396" transform="matrix(1 0 0 -1 634.097 446.195)" fill="white"/>
<path d="M634.097 445.987C634.097 447.028 634.68 449.11 637.011 449.11V445.987" stroke="black" stroke-width="0.416396"/>
<rect width="2.91477" height="0.416396" transform="matrix(1 0 0 -1 684.482 445.363)" fill="white"/>
<path d="M684.482 445.154C684.482 446.195 685.065 448.277 687.397 448.277V445.154" stroke="black" stroke-width="0.416396"/>
<rect width="2.91477" height="0.416396" transform="matrix(1 0 0 -1 699.889 445.362)" fill="white"/>
<path d="M699.889 445.154C699.889 446.195 700.472 448.277 702.803 448.277V445.154" stroke="black" stroke-width="0.416396"/>
<rect width="2.91477" height="0.416396" transform="matrix(1 0 0 -1 728.204 445.362)" fill="white"/>
<path d="M728.204 445.154C728.204 446.195 728.787 448.277 731.119 448.277V445.154" stroke="black" stroke-width="0.416396"/>
<rect x="746.523" y="406.221" width="2.91477" height="0.416396" transform="rotate(90 746.523 406.221)" fill="white"/>
<path d="M746.316 406.221C747.356 406.221 749.438 406.804 749.438 409.136L746.316 409.136" stroke="black" stroke-width="0.416396"/>
<rect x="577.47" y="483.254" width="13.7411" height="0.416396" fill="white"/>
<rect x="555.399" y="476.592" width="13.7411" height="0.416396" fill="white"/>
<rect x="599.121" y="483.254" width="13.7411" height="0.416396" fill="white"/>
<rect x="621.189" y="483.254" width="13.7411" height="0.416396" fill="white"/>
<rect x="622.023" y="386.65" width="13.7411" height="0.416396" fill="white"/>
<rect x="644.925" y="391.647" width="13.7411" height="0.416396" fill="white"/>
<rect x="670.325" y="386.65" width="13.7411" height="0.416396" fill="white"/>
<rect x="669.91" y="483.254" width="13.7411" height="0.416396" fill="white"/>
<rect x="692.811" y="386.65" width="13.7411" height="0.416396" fill="white"/>
<rect x="711.964" y="483.254" width="13.7411" height="0.416396" fill="white"/>
<rect x="734.45" y="494.08" width="13.7411" height="0.416396" fill="white"/>
<rect x="750.688" y="494.08" width="13.7411" height="0.416396" fill="white"/>
<path d="M733.081 430.737L765.466 493.488" stroke="black" stroke-width="0.516331"/>
<path d="M733.583 493.477L765.438 431.202" stroke="black" stroke-width="0.516331"/>
<line x1="638.369" y1="483.165" x2="665.707" y2="483.165" stroke="black" stroke-width="0.416396"/>
<path d="M572.825 387.623L616.837 387.622V424.786H552.032V395.174H572.567H572.825V394.916V387.623Z" stroke="black" stroke-width="0.516331"/>
<path d="M572.825 387.623L616.837 387.622V424.786H552.032V395.174H572.567H572.825V394.916V387.623Z" fill="#D9D9D9" fill-opacity="0.22" stroke="black" stroke-width="0.516331"/>
<path d="M614.356 387.521C614.356 388.259 614.8 389.737 616.573 389.737" stroke="#9F0F0F" stroke-width="1.24919"/>
<rect x="567.475" y="424.542" width="2.91477" height="0.416396" fill="white"/>
<path d="M567.475 424.75C567.475 423.709 568.058 421.627 570.389 421.627V424.75" stroke="black" stroke-width="0.416396"/>
<rect x="611.613" y="424.542" width="2.91477" height="0.416396" fill="white"/>
<path d="M611.613 424.751C611.613 423.71 612.196 421.628 614.528 421.628V424.751" stroke="black" stroke-width="0.416396"/>
<rect x="555.399" y="394.562" width="13.7411" height="0.416396" fill="white"/>
<rect x="577.47" y="386.65" width="13.7411" height="0.416396" fill="white"/>
<rect x="597.455" y="386.65" width="13.7411" height="0.416396" fill="white"/>
<path d="M558.697 464.506V464.187L559.897 462.874C560.038 462.72 560.154 462.586 560.245 462.473C560.336 462.358 560.403 462.25 560.447 462.15C560.492 462.048 560.514 461.942 560.514 461.831C560.514 461.703 560.484 461.592 560.422 461.499C560.362 461.405 560.279 461.333 560.174 461.282C560.068 461.231 559.95 461.206 559.819 461.206C559.679 461.206 559.557 461.235 559.453 461.293C559.35 461.35 559.271 461.43 559.214 461.532C559.158 461.635 559.13 461.756 559.13 461.894H558.712C558.712 461.681 558.761 461.495 558.859 461.334C558.957 461.173 559.091 461.047 559.26 460.958C559.43 460.868 559.621 460.823 559.833 460.823C560.046 460.823 560.235 460.868 560.399 460.958C560.564 461.047 560.692 461.169 560.786 461.321C560.879 461.474 560.926 461.644 560.926 461.831C560.926 461.964 560.902 462.095 560.853 462.223C560.806 462.349 560.723 462.491 560.605 462.647C560.488 462.802 560.325 462.991 560.117 463.215L559.301 464.088V464.116H560.99V464.506H558.697ZM563 460.872V464.506H562.56V461.334H562.539L561.652 461.923V461.476L562.56 460.872H563ZM565.273 464.556C565.039 464.556 564.83 464.516 564.647 464.435C564.465 464.355 564.32 464.243 564.212 464.1C564.106 463.956 564.048 463.788 564.038 463.598H564.486C564.495 463.715 564.535 463.816 564.606 463.901C564.677 463.985 564.77 464.05 564.885 464.096C565 464.143 565.127 464.166 565.266 464.166C565.422 464.166 565.561 464.138 565.682 464.084C565.802 464.03 565.897 463.954 565.965 463.857C566.034 463.76 566.068 463.648 566.068 463.52C566.068 463.386 566.035 463.268 565.969 463.167C565.903 463.064 565.806 462.983 565.678 462.925C565.55 462.867 565.394 462.838 565.21 462.838H564.919V462.448H565.21C565.354 462.448 565.48 462.422 565.589 462.37C565.699 462.318 565.785 462.245 565.847 462.15C565.909 462.055 565.941 461.944 565.941 461.816C565.941 461.693 565.913 461.586 565.859 461.495C565.805 461.404 565.728 461.333 565.628 461.282C565.53 461.231 565.414 461.206 565.281 461.206C565.155 461.206 565.037 461.229 564.926 461.275C564.816 461.32 564.726 461.386 564.656 461.472C564.586 461.557 564.548 461.66 564.542 461.781H564.117C564.124 461.59 564.181 461.424 564.289 461.28C564.396 461.136 564.537 461.024 564.711 460.943C564.886 460.863 565.078 460.823 565.288 460.823C565.512 460.823 565.705 460.868 565.866 460.959C566.027 461.049 566.151 461.168 566.237 461.316C566.323 461.464 566.366 461.624 566.366 461.795C566.366 462 566.313 462.174 566.205 462.318C566.099 462.463 565.954 462.563 565.77 462.618V462.647C566 462.685 566.179 462.782 566.308 462.94C566.437 463.096 566.501 463.289 566.501 463.52C566.501 463.717 566.448 463.895 566.34 464.052C566.233 464.208 566.088 464.331 565.903 464.421C565.719 464.511 565.509 464.556 565.273 464.556Z" fill="black"/>
<path d="M580.353 467.656V467.336L581.552 466.023C581.693 465.87 581.809 465.736 581.9 465.622C581.991 465.508 582.059 465.4 582.102 465.299C582.147 465.198 582.17 465.091 582.17 464.98C582.17 464.852 582.139 464.742 582.077 464.648C582.017 464.555 581.934 464.483 581.829 464.432C581.724 464.381 581.605 464.355 581.474 464.355C581.335 464.355 581.213 464.384 581.109 464.442C581.006 464.499 580.926 464.579 580.869 464.682C580.813 464.785 580.786 464.905 580.786 465.044H580.367C580.367 464.831 580.416 464.644 580.514 464.483C580.612 464.322 580.746 464.197 580.915 464.107C581.086 464.017 581.277 463.972 581.488 463.972C581.701 463.972 581.89 464.017 582.054 464.107C582.219 464.197 582.348 464.318 582.441 464.471C582.535 464.623 582.581 464.793 582.581 464.98C582.581 465.114 582.557 465.244 582.509 465.372C582.461 465.499 582.379 465.64 582.26 465.796C582.143 465.951 581.98 466.14 581.772 466.364L580.956 467.237V467.265H582.645V467.656H580.353ZM584.656 464.022V467.656H584.216V464.483H584.194L583.307 465.072V464.625L584.216 464.022H584.656ZM585.701 467.656V467.336L586.9 466.023C587.041 465.87 587.157 465.736 587.248 465.622C587.339 465.508 587.407 465.4 587.45 465.299C587.495 465.198 587.518 465.091 587.518 464.98C587.518 464.852 587.487 464.742 587.426 464.648C587.365 464.555 587.282 464.483 587.177 464.432C587.072 464.381 586.954 464.355 586.822 464.355C586.683 464.355 586.561 464.384 586.457 464.442C586.354 464.499 586.274 464.579 586.217 464.682C586.162 464.785 586.134 464.905 586.134 465.044H585.715C585.715 464.831 585.764 464.644 585.862 464.483C585.96 464.322 586.094 464.197 586.263 464.107C586.434 464.017 586.625 463.972 586.836 463.972C587.049 463.972 587.238 464.017 587.402 464.107C587.567 464.197 587.696 464.318 587.789 464.471C587.883 464.623 587.929 464.793 587.929 464.98C587.929 465.114 587.905 465.244 587.857 465.372C587.809 465.499 587.727 465.64 587.608 465.796C587.491 465.951 587.329 466.14 587.12 466.364L586.304 467.237V467.265H587.993V467.656H585.701Z" fill="black"/>
<path d="M602.837 467.656V467.336L604.037 466.023C604.177 465.87 604.293 465.736 604.384 465.622C604.475 465.508 604.543 465.4 604.587 465.299C604.632 465.198 604.654 465.091 604.654 464.98C604.654 464.852 604.623 464.742 604.562 464.648C604.502 464.555 604.419 464.483 604.313 464.432C604.208 464.381 604.09 464.355 603.959 464.355C603.819 464.355 603.697 464.384 603.593 464.442C603.49 464.499 603.41 464.579 603.353 464.682C603.298 464.785 603.27 464.905 603.27 465.044H602.851C602.851 464.831 602.9 464.644 602.999 464.483C603.097 464.322 603.23 464.197 603.4 464.107C603.57 464.017 603.761 463.972 603.973 463.972C604.186 463.972 604.374 464.017 604.539 464.107C604.703 464.197 604.832 464.318 604.926 464.471C605.019 464.623 605.066 464.793 605.066 464.98C605.066 465.114 605.042 465.244 604.993 465.372C604.946 465.499 604.863 465.64 604.745 465.796C604.627 465.951 604.465 466.14 604.257 466.364L603.44 467.237V467.265H605.13V467.656H602.837ZM607.14 464.022V467.656H606.7V464.483H606.679L605.792 465.072V464.625L606.7 464.022H607.14ZM609.463 464.022V467.656H609.023V464.483H609.001L608.114 465.072V464.625L609.023 464.022H609.463Z" fill="black"/>
<path d="M624.492 467.656V467.336L625.692 466.023C625.833 465.87 625.949 465.736 626.04 465.622C626.131 465.508 626.198 465.4 626.242 465.299C626.287 465.198 626.309 465.091 626.309 464.98C626.309 464.852 626.279 464.742 626.217 464.648C626.157 464.555 626.074 464.483 625.969 464.432C625.863 464.381 625.745 464.355 625.614 464.355C625.474 464.355 625.352 464.384 625.248 464.442C625.145 464.499 625.066 464.579 625.009 464.682C624.953 464.785 624.925 464.905 624.925 465.044H624.507C624.507 464.831 624.556 464.644 624.654 464.483C624.752 464.322 624.886 464.197 625.055 464.107C625.225 464.017 625.416 463.972 625.628 463.972C625.841 463.972 626.03 464.017 626.194 464.107C626.358 464.197 626.487 464.318 626.581 464.471C626.674 464.623 626.721 464.793 626.721 464.98C626.721 465.114 626.697 465.244 626.648 465.372C626.601 465.499 626.518 465.64 626.4 465.796C626.283 465.951 626.12 466.14 625.912 466.364L625.096 467.237V467.265H626.785V467.656H624.492ZM628.795 464.022V467.656H628.355V464.483H628.334L627.447 465.072V464.625L628.355 464.022H628.795ZM631.026 467.705C630.758 467.705 630.531 467.633 630.343 467.487C630.155 467.341 630.011 467.128 629.911 466.85C629.812 466.571 629.762 466.234 629.762 465.839C629.762 465.446 629.812 465.111 629.911 464.833C630.012 464.553 630.156 464.341 630.344 464.194C630.534 464.046 630.761 463.972 631.026 463.972C631.291 463.972 631.517 464.046 631.705 464.194C631.895 464.341 632.039 464.553 632.138 464.833C632.239 465.111 632.289 465.446 632.289 465.839C632.289 466.234 632.239 466.571 632.14 466.85C632.041 467.128 631.897 467.341 631.709 467.487C631.521 467.633 631.293 467.705 631.026 467.705ZM631.026 467.315C631.291 467.315 631.497 467.187 631.643 466.932C631.79 466.676 631.863 466.312 631.863 465.839C631.863 465.524 631.83 465.256 631.762 465.035C631.696 464.814 631.6 464.645 631.475 464.529C631.35 464.413 631.201 464.355 631.026 464.355C630.763 464.355 630.558 464.485 630.41 464.744C630.262 465.002 630.188 465.367 630.188 465.839C630.188 466.153 630.221 466.421 630.288 466.641C630.354 466.861 630.449 467.028 630.573 467.143C630.699 467.258 630.85 467.315 631.026 467.315Z" fill="black"/>
<path d="M673.588 467.656V467.336L674.788 466.023C674.928 465.87 675.044 465.736 675.135 465.622C675.226 465.508 675.294 465.4 675.338 465.299C675.383 465.198 675.405 465.091 675.405 464.98C675.405 464.852 675.374 464.742 675.313 464.648C675.252 464.555 675.17 464.483 675.064 464.432C674.959 464.381 674.841 464.355 674.71 464.355C674.57 464.355 674.448 464.384 674.344 464.442C674.241 464.499 674.161 464.579 674.104 464.682C674.049 464.785 674.021 464.905 674.021 465.044H673.602C673.602 464.831 673.651 464.644 673.75 464.483C673.848 464.322 673.981 464.197 674.151 464.107C674.321 464.017 674.512 463.972 674.724 463.972C674.937 463.972 675.125 464.017 675.29 464.107C675.454 464.197 675.583 464.318 675.677 464.471C675.77 464.623 675.817 464.793 675.817 464.98C675.817 465.114 675.793 465.244 675.744 465.372C675.697 465.499 675.614 465.64 675.496 465.796C675.378 465.951 675.216 466.14 675.008 466.364L674.191 467.237V467.265H675.881V467.656H673.588ZM677.799 467.705C677.531 467.705 677.304 467.633 677.116 467.487C676.928 467.341 676.784 467.128 676.684 466.85C676.585 466.571 676.535 466.234 676.535 465.839C676.535 465.446 676.585 465.111 676.684 464.833C676.785 464.553 676.929 464.341 677.117 464.194C677.307 464.046 677.534 463.972 677.799 463.972C678.064 463.972 678.29 464.046 678.478 464.194C678.668 464.341 678.812 464.553 678.911 464.833C679.012 465.111 679.062 465.446 679.062 465.839C679.062 466.234 679.012 466.571 678.913 466.85C678.814 467.128 678.67 467.341 678.482 467.487C678.294 467.633 678.066 467.705 677.799 467.705ZM677.799 467.315C678.064 467.315 678.27 467.187 678.416 466.932C678.563 466.676 678.636 466.312 678.636 465.839C678.636 465.524 678.603 465.256 678.535 465.035C678.469 464.814 678.373 464.645 678.248 464.529C678.123 464.413 677.974 464.355 677.799 464.355C677.536 464.355 677.331 464.485 677.183 464.744C677.035 465.002 676.961 465.367 676.961 465.839C676.961 466.153 676.994 466.421 677.061 466.641C677.127 466.861 677.222 467.028 677.346 467.143C677.472 467.258 677.623 467.315 677.799 467.315ZM680.893 463.972C681.042 463.973 681.191 464.002 681.341 464.057C681.49 464.113 681.626 464.205 681.749 464.334C681.872 464.462 681.97 464.636 682.045 464.858C682.119 465.079 682.157 465.356 682.157 465.69C682.157 466.013 682.126 466.3 682.064 466.55C682.004 466.8 681.917 467.01 681.802 467.182C681.688 467.354 681.55 467.484 681.387 467.572C681.225 467.661 681.041 467.705 680.837 467.705C680.633 467.705 680.452 467.665 680.292 467.585C680.133 467.503 680.003 467.39 679.901 467.246C679.801 467.1 679.736 466.932 679.708 466.74H680.141C680.18 466.907 680.258 467.045 680.373 467.154C680.491 467.261 680.645 467.315 680.837 467.315C681.117 467.315 681.338 467.193 681.5 466.948C681.663 466.703 681.745 466.357 681.745 465.91H681.717C681.65 466.009 681.572 466.095 681.481 466.167C681.39 466.239 681.288 466.295 681.177 466.334C681.066 466.373 680.948 466.392 680.822 466.392C680.614 466.392 680.423 466.341 680.249 466.238C680.077 466.134 679.938 465.991 679.834 465.81C679.731 465.628 679.68 465.42 679.68 465.186C679.68 464.963 679.729 464.76 679.829 464.575C679.929 464.39 680.07 464.242 680.251 464.132C680.433 464.022 680.647 463.969 680.893 463.972ZM680.893 464.362C680.744 464.362 680.61 464.4 680.491 464.474C680.372 464.548 680.278 464.647 680.208 464.772C680.14 464.897 680.106 465.034 680.106 465.186C680.106 465.337 680.139 465.475 680.205 465.599C680.272 465.722 680.364 465.82 680.48 465.894C680.597 465.966 680.73 466.002 680.879 466.002C680.992 466.002 681.096 465.98 681.193 465.936C681.29 465.891 681.375 465.83 681.447 465.754C681.52 465.676 681.578 465.587 681.619 465.489C681.66 465.39 681.681 465.286 681.681 465.179C681.681 465.037 681.647 464.904 681.578 464.779C681.511 464.655 681.417 464.555 681.298 464.478C681.18 464.401 681.045 464.362 680.893 464.362Z" fill="black"/>
<path d="M692.796 467.656V467.336L693.996 466.023C694.136 465.87 694.252 465.736 694.343 465.622C694.434 465.508 694.502 465.4 694.546 465.299C694.591 465.198 694.613 465.091 694.613 464.98C694.613 464.852 694.582 464.742 694.521 464.648C694.46 464.555 694.378 464.483 694.272 464.432C694.167 464.381 694.049 464.355 693.918 464.355C693.778 464.355 693.656 464.384 693.552 464.442C693.449 464.499 693.369 464.579 693.312 464.682C693.257 464.785 693.229 464.905 693.229 465.044H692.81C692.81 464.831 692.859 464.644 692.958 464.483C693.056 464.322 693.189 464.197 693.359 464.107C693.529 464.017 693.72 463.972 693.932 463.972C694.145 463.972 694.333 464.017 694.498 464.107C694.662 464.197 694.791 464.318 694.885 464.471C694.978 464.623 695.025 464.793 695.025 464.98C695.025 465.114 695.001 465.244 694.952 465.372C694.905 465.499 694.822 465.64 694.704 465.796C694.586 465.951 694.424 466.14 694.216 466.364L693.399 467.237V467.265H695.089V467.656H692.796ZM697.007 467.705C696.739 467.705 696.512 467.633 696.324 467.487C696.136 467.341 695.992 467.128 695.892 466.85C695.793 466.571 695.743 466.234 695.743 465.839C695.743 465.446 695.793 465.111 695.892 464.833C695.993 464.553 696.137 464.341 696.325 464.194C696.515 464.046 696.742 463.972 697.007 463.972C697.272 463.972 697.498 464.046 697.686 464.194C697.876 464.341 698.02 464.553 698.119 464.833C698.22 465.111 698.27 465.446 698.27 465.839C698.27 466.234 698.22 466.571 698.121 466.85C698.022 467.128 697.878 467.341 697.69 467.487C697.502 467.633 697.274 467.705 697.007 467.705ZM697.007 467.315C697.272 467.315 697.478 467.187 697.624 466.932C697.771 466.676 697.844 466.312 697.844 465.839C697.844 465.524 697.811 465.256 697.743 465.035C697.677 464.814 697.581 464.645 697.456 464.529C697.331 464.413 697.182 464.355 697.007 464.355C696.744 464.355 696.539 464.485 696.391 464.744C696.243 465.002 696.169 465.367 696.169 465.839C696.169 466.153 696.202 466.421 696.269 466.641C696.335 466.861 696.43 467.028 696.554 467.143C696.68 467.258 696.831 467.315 697.007 467.315ZM700.108 467.705C699.865 467.705 699.649 467.662 699.463 467.576C699.277 467.488 699.132 467.368 699.028 467.216C698.924 467.062 698.872 466.887 698.873 466.69C698.872 466.537 698.902 466.395 698.964 466.265C699.025 466.133 699.109 466.024 699.216 465.936C699.324 465.848 699.444 465.791 699.576 465.768V465.746C699.402 465.702 699.264 465.604 699.161 465.454C699.058 465.302 699.007 465.13 699.008 464.937C699.007 464.753 699.054 464.588 699.148 464.442C699.243 464.297 699.373 464.182 699.539 464.098C699.706 464.014 699.896 463.972 700.108 463.972C700.319 463.972 700.507 464.014 700.673 464.098C700.838 464.182 700.968 464.297 701.063 464.442C701.159 464.588 701.207 464.753 701.209 464.937C701.207 465.13 701.155 465.302 701.051 465.454C700.948 465.604 700.811 465.702 700.641 465.746V465.768C700.772 465.791 700.89 465.848 700.996 465.936C701.101 466.024 701.185 466.133 701.248 466.265C701.31 466.395 701.342 466.537 701.343 466.69C701.342 466.887 701.289 467.062 701.184 467.216C701.08 467.368 700.935 467.488 700.749 467.576C700.564 467.662 700.351 467.705 700.108 467.705ZM700.108 467.315C700.273 467.315 700.415 467.288 700.534 467.235C700.654 467.182 700.746 467.107 700.811 467.01C700.876 466.913 700.909 466.799 700.91 466.669C700.909 466.532 700.874 466.411 700.804 466.305C700.734 466.2 700.639 466.117 700.518 466.057C700.399 465.997 700.262 465.967 700.108 465.967C699.953 465.967 699.815 465.997 699.693 466.057C699.573 466.117 699.477 466.2 699.408 466.305C699.339 466.411 699.305 466.532 699.306 466.669C699.305 466.799 699.337 466.913 699.4 467.01C699.466 467.107 699.558 467.182 699.679 467.235C699.8 467.288 699.943 467.315 700.108 467.315ZM700.108 465.59C700.239 465.59 700.354 465.564 700.454 465.512C700.556 465.46 700.636 465.387 700.694 465.294C700.752 465.201 700.782 465.091 700.783 464.966C700.782 464.843 700.753 464.736 700.696 464.645C700.639 464.552 700.56 464.481 700.46 464.432C700.359 464.381 700.242 464.355 700.108 464.355C699.972 464.355 699.854 464.381 699.752 464.432C699.65 464.481 699.571 464.552 699.516 464.645C699.46 464.736 699.433 464.843 699.434 464.966C699.433 465.091 699.461 465.201 699.518 465.294C699.576 465.387 699.655 465.46 699.757 465.512C699.859 465.564 699.976 465.59 700.108 465.59Z" fill="black"/>
<path d="M715.264 467.656V467.336L716.463 466.023C716.604 465.87 716.72 465.736 716.811 465.622C716.902 465.508 716.97 465.4 717.013 465.299C717.058 465.198 717.081 465.091 717.081 464.98C717.081 464.852 717.05 464.742 716.989 464.648C716.928 464.555 716.845 464.483 716.74 464.432C716.635 464.381 716.517 464.355 716.385 464.355C716.246 464.355 716.124 464.384 716.02 464.442C715.917 464.499 715.837 464.579 715.78 464.682C715.725 464.785 715.697 464.905 715.697 465.044H715.278C715.278 464.831 715.327 464.644 715.425 464.483C715.524 464.322 715.657 464.197 715.826 464.107C715.997 464.017 716.188 463.972 716.399 463.972C716.612 463.972 716.801 464.017 716.966 464.107C717.13 464.197 717.259 464.318 717.352 464.471C717.446 464.623 717.493 464.793 717.493 464.98C717.493 465.114 717.468 465.244 717.42 465.372C717.372 465.499 717.29 465.64 717.171 465.796C717.054 465.951 716.892 466.14 716.683 466.364L715.867 467.237V467.265H717.556V467.656H715.264ZM719.475 467.705C719.207 467.705 718.979 467.633 718.791 467.487C718.603 467.341 718.46 467.128 718.36 466.85C718.261 466.571 718.211 466.234 718.211 465.839C718.211 465.446 718.261 465.111 718.36 464.833C718.461 464.553 718.605 464.341 718.793 464.194C718.982 464.046 719.21 463.972 719.475 463.972C719.74 463.972 719.966 464.046 720.154 464.194C720.343 464.341 720.488 464.553 720.587 464.833C720.688 465.111 720.738 465.446 720.738 465.839C720.738 466.234 720.688 466.571 720.589 466.85C720.49 467.128 720.346 467.341 720.158 467.487C719.97 467.633 719.742 467.705 719.475 467.705ZM719.475 467.315C719.74 467.315 719.945 467.187 720.092 466.932C720.239 466.676 720.312 466.312 720.312 465.839C720.312 465.524 720.278 465.256 720.211 465.035C720.145 464.814 720.049 464.645 719.923 464.529C719.799 464.413 719.65 464.355 719.475 464.355C719.212 464.355 719.007 464.485 718.859 464.744C718.711 465.002 718.637 465.367 718.637 465.839C718.637 466.153 718.67 466.421 718.736 466.641C718.803 466.861 718.898 467.028 719.022 467.143C719.147 467.258 719.298 467.315 719.475 467.315ZM721.428 467.656L723.054 464.441V464.412H721.18V464.022H723.508V464.433L721.89 467.656H721.428Z" fill="black"/>
<path d="M751.058 401.889V401.57L752.257 400.257C752.398 400.103 752.514 399.969 752.605 399.856C752.696 399.741 752.764 399.633 752.807 399.533C752.852 399.431 752.875 399.325 752.875 399.213C752.875 399.086 752.844 398.975 752.783 398.882C752.722 398.788 752.639 398.716 752.534 398.665C752.429 398.614 752.311 398.589 752.179 398.589C752.04 398.589 751.918 398.618 751.814 398.676C751.711 398.732 751.631 398.812 751.574 398.915C751.519 399.018 751.491 399.139 751.491 399.277H751.072C751.072 399.064 751.121 398.877 751.219 398.717C751.317 398.556 751.451 398.43 751.62 398.34C751.791 398.25 751.982 398.205 752.193 398.205C752.406 398.205 752.595 398.25 752.759 398.34C752.924 398.43 753.053 398.551 753.146 398.704C753.24 398.857 753.286 399.026 753.286 399.213C753.286 399.347 753.262 399.478 753.214 399.605C753.166 399.732 753.084 399.873 752.965 400.03C752.848 400.185 752.686 400.374 752.477 400.597L751.661 401.47V401.499H753.35V401.889H751.058ZM755.268 401.939C755.001 401.939 754.773 401.866 754.585 401.721C754.397 401.574 754.254 401.362 754.154 401.084C754.055 400.804 754.005 400.467 754.005 400.072C754.005 399.679 754.055 399.344 754.154 399.066C754.255 398.787 754.399 398.574 754.587 398.427C754.776 398.279 755.004 398.205 755.268 398.205C755.533 398.205 755.76 398.279 755.948 398.427C756.137 398.574 756.282 398.787 756.381 399.066C756.482 399.344 756.532 399.679 756.532 400.072C756.532 400.467 756.482 400.804 756.383 401.084C756.283 401.362 756.14 401.574 755.952 401.721C755.764 401.866 755.536 401.939 755.268 401.939ZM755.268 401.548C755.533 401.548 755.739 401.421 755.886 401.165C756.033 400.91 756.106 400.545 756.106 400.072C756.106 399.757 756.072 399.49 756.005 399.268C755.939 399.047 755.843 398.879 755.717 398.763C755.593 398.647 755.444 398.589 755.268 398.589C755.006 398.589 754.801 398.718 754.653 398.977C754.505 399.235 754.431 399.6 754.431 400.072C754.431 400.387 754.464 400.654 754.53 400.874C754.597 401.094 754.692 401.262 754.816 401.376C754.941 401.491 755.092 401.548 755.268 401.548ZM758.413 401.939C758.264 401.936 758.115 401.908 757.966 401.854C757.817 401.799 757.681 401.708 757.557 401.579C757.434 401.449 757.336 401.273 757.261 401.052C757.187 400.829 757.149 400.55 757.149 400.214C757.149 399.892 757.18 399.607 757.24 399.359C757.3 399.109 757.388 398.899 757.502 398.729C757.617 398.557 757.756 398.427 757.918 398.339C758.081 398.25 758.265 398.205 758.47 398.205C758.673 398.205 758.854 398.246 759.013 398.328C759.172 398.408 759.302 398.521 759.403 398.665C759.503 398.809 759.568 398.976 759.598 399.164H759.165C759.125 399 759.047 398.865 758.931 398.757C758.815 398.65 758.661 398.596 758.47 398.596C758.188 398.596 757.966 398.718 757.804 398.963C757.643 399.208 757.562 399.552 757.561 399.994H757.589C757.656 399.894 757.734 399.808 757.825 399.737C757.918 399.665 758.019 399.609 758.131 399.57C758.242 399.531 758.36 399.511 758.484 399.511C758.692 399.511 758.882 399.563 759.055 399.668C759.228 399.771 759.366 399.913 759.47 400.095C759.574 400.276 759.626 400.484 759.626 400.718C759.626 400.943 759.576 401.149 759.476 401.336C759.375 401.521 759.234 401.669 759.052 401.779C758.871 401.888 758.658 401.941 758.413 401.939ZM758.413 401.548C758.562 401.548 758.695 401.511 758.814 401.437C758.933 401.362 759.027 401.262 759.096 401.137C759.166 401.011 759.201 400.872 759.201 400.718C759.201 400.568 759.167 400.431 759.099 400.308C759.033 400.184 758.942 400.085 758.824 400.012C758.708 399.938 758.576 399.902 758.427 399.902C758.315 399.902 758.21 399.924 758.113 399.969C758.016 400.013 757.931 400.073 757.857 400.15C757.785 400.227 757.728 400.315 757.687 400.415C757.646 400.513 757.625 400.616 757.625 400.725C757.625 400.869 757.659 401.004 757.726 401.13C757.795 401.255 757.888 401.356 758.006 401.433C758.126 401.51 758.261 401.548 758.413 401.548Z" fill="black"/>
<path d="M648.837 412.511V412.192L650.037 410.879C650.177 410.725 650.293 410.591 650.384 410.478C650.475 410.363 650.543 410.255 650.587 410.155C650.632 410.053 650.654 409.947 650.654 409.835C650.654 409.708 650.623 409.597 650.562 409.504C650.502 409.41 650.419 409.338 650.313 409.287C650.208 409.236 650.09 409.211 649.959 409.211C649.819 409.211 649.697 409.24 649.593 409.298C649.49 409.355 649.41 409.434 649.353 409.537C649.298 409.64 649.27 409.761 649.27 409.899H648.851C648.851 409.686 648.9 409.499 648.999 409.339C649.097 409.178 649.23 409.052 649.4 408.962C649.57 408.873 649.761 408.828 649.973 408.828C650.186 408.828 650.374 408.873 650.539 408.962C650.703 409.052 650.832 409.174 650.926 409.326C651.019 409.479 651.066 409.649 651.066 409.835C651.066 409.969 651.042 410.1 650.993 410.228C650.946 410.354 650.863 410.495 650.745 410.652C650.627 410.807 650.465 410.996 650.257 411.219L649.44 412.092V412.121H651.13V412.511H648.837ZM653.048 412.561C652.78 412.561 652.553 412.488 652.365 412.343C652.177 412.196 652.033 411.984 651.933 411.706C651.834 411.426 651.784 411.089 651.784 410.694C651.784 410.301 651.834 409.966 651.933 409.688C652.034 409.409 652.178 409.196 652.366 409.049C652.556 408.901 652.783 408.828 653.048 408.828C653.313 408.828 653.539 408.901 653.727 409.049C653.917 409.196 654.061 409.409 654.16 409.688C654.261 409.966 654.311 410.301 654.311 410.694C654.311 411.089 654.261 411.426 654.162 411.706C654.063 411.984 653.919 412.196 653.731 412.343C653.543 412.488 653.315 412.561 653.048 412.561ZM653.048 412.171C653.313 412.171 653.519 412.043 653.665 411.787C653.812 411.532 653.885 411.167 653.885 410.694C653.885 410.38 653.852 410.112 653.784 409.89C653.718 409.669 653.622 409.501 653.497 409.385C653.373 409.269 653.223 409.211 653.048 409.211C652.785 409.211 652.58 409.34 652.432 409.599C652.284 409.857 652.21 410.222 652.21 410.694C652.21 411.009 652.243 411.276 652.31 411.496C652.376 411.716 652.471 411.884 652.595 411.998C652.721 412.113 652.872 412.171 653.048 412.171ZM656.213 412.561C655.979 412.561 655.77 412.521 655.587 412.44C655.405 412.36 655.26 412.248 655.152 412.105C655.046 411.961 654.988 411.793 654.978 411.603H655.426C655.435 411.72 655.475 411.821 655.546 411.906C655.617 411.99 655.71 412.055 655.825 412.101C655.939 412.147 656.067 412.171 656.206 412.171C656.362 412.171 656.501 412.143 656.621 412.089C656.742 412.035 656.837 411.959 656.905 411.862C656.974 411.765 657.008 411.652 657.008 411.525C657.008 411.391 656.975 411.273 656.909 411.172C656.843 411.069 656.746 410.988 656.618 410.93C656.49 410.872 656.334 410.843 656.149 410.843H655.858V410.453H656.149C656.294 410.453 656.42 410.427 656.529 410.375C656.639 410.323 656.725 410.249 656.786 410.155C656.849 410.06 656.881 409.949 656.881 409.821C656.881 409.698 656.853 409.591 656.799 409.5C656.744 409.409 656.668 409.338 656.568 409.287C656.47 409.236 656.354 409.211 656.22 409.211C656.095 409.211 655.977 409.234 655.866 409.28C655.756 409.325 655.666 409.391 655.596 409.477C655.526 409.562 655.488 409.665 655.482 409.786H655.056C655.064 409.595 655.121 409.428 655.229 409.285C655.336 409.141 655.477 409.029 655.651 408.948C655.826 408.868 656.018 408.828 656.228 408.828C656.452 408.828 656.645 408.873 656.806 408.964C656.967 409.054 657.09 409.173 657.177 409.321C657.263 409.469 657.306 409.628 657.306 409.8C657.306 410.005 657.253 410.179 657.145 410.323C657.038 410.468 656.894 410.568 656.71 410.623V410.652C656.94 410.689 657.119 410.787 657.248 410.944C657.377 411.101 657.441 411.294 657.441 411.525C657.441 411.722 657.387 411.9 657.28 412.057C657.173 412.213 657.028 412.336 656.843 412.426C656.659 412.516 656.449 412.561 656.213 412.561Z" fill="black"/>
<path d="M584.128 409.093V408.773L585.328 407.46C585.468 407.307 585.584 407.173 585.675 407.059C585.767 406.945 585.834 406.837 585.878 406.736C585.923 406.635 585.945 406.528 585.945 406.417C585.945 406.289 585.914 406.179 585.853 406.085C585.793 405.992 585.71 405.92 585.604 405.869C585.499 405.818 585.381 405.792 585.25 405.792C585.11 405.792 584.988 405.821 584.884 405.879C584.781 405.936 584.701 406.016 584.644 406.119C584.589 406.222 584.561 406.342 584.561 406.481H584.142C584.142 406.268 584.191 406.081 584.29 405.92C584.388 405.759 584.521 405.634 584.691 405.544C584.861 405.454 585.052 405.409 585.264 405.409C585.477 405.409 585.665 405.454 585.83 405.544C585.994 405.634 586.123 405.755 586.217 405.908C586.31 406.06 586.357 406.23 586.357 406.417C586.357 406.551 586.333 406.681 586.284 406.809C586.237 406.936 586.154 407.077 586.036 407.233C585.919 407.388 585.756 407.577 585.548 407.801L584.731 408.674V408.702H586.421V409.093H584.128ZM588.339 409.142C588.071 409.142 587.844 409.07 587.656 408.924C587.468 408.778 587.324 408.565 587.224 408.287C587.125 408.008 587.075 407.671 587.075 407.276C587.075 406.883 587.125 406.548 587.224 406.27C587.325 405.991 587.469 405.778 587.657 405.631C587.847 405.483 588.074 405.409 588.339 405.409C588.604 405.409 588.83 405.483 589.018 405.631C589.208 405.778 589.352 405.991 589.451 406.27C589.552 406.548 589.602 406.883 589.602 407.276C589.602 407.671 589.553 408.008 589.453 408.287C589.354 408.565 589.21 408.778 589.022 408.924C588.834 409.07 588.606 409.142 588.339 409.142ZM588.339 408.752C588.604 408.752 588.81 408.624 588.956 408.369C589.103 408.113 589.176 407.749 589.176 407.276C589.176 406.961 589.143 406.693 589.075 406.472C589.009 406.251 588.913 406.082 588.788 405.966C588.664 405.85 588.514 405.792 588.339 405.792C588.076 405.792 587.871 405.922 587.723 406.181C587.575 406.439 587.501 406.804 587.501 407.276C587.501 407.59 587.534 407.858 587.601 408.078C587.667 408.298 587.762 408.465 587.886 408.58C588.012 408.695 588.163 408.752 588.339 408.752ZM591.554 405.459V409.093H591.114V405.92H591.093L590.205 406.509V406.062L591.114 405.459H591.554Z" fill="black"/>
<path d="M624.038 409.093V408.773L625.238 407.46C625.379 407.307 625.494 407.173 625.586 407.059C625.677 406.945 625.744 406.837 625.788 406.736C625.833 406.635 625.855 406.528 625.855 406.417C625.855 406.289 625.825 406.179 625.763 406.085C625.703 405.992 625.62 405.92 625.515 405.869C625.409 405.818 625.291 405.792 625.16 405.792C625.02 405.792 624.898 405.821 624.794 405.879C624.691 405.936 624.611 406.016 624.555 406.119C624.499 406.222 624.471 406.342 624.471 406.481H624.052C624.052 406.268 624.102 406.081 624.2 405.92C624.298 405.759 624.432 405.634 624.601 405.544C624.771 405.454 624.962 405.409 625.174 405.409C625.387 405.409 625.576 405.454 625.74 405.544C625.904 405.634 626.033 405.755 626.127 405.908C626.22 406.06 626.267 406.23 626.267 406.417C626.267 406.551 626.243 406.681 626.194 406.809C626.147 406.936 626.064 407.077 625.946 407.233C625.829 407.388 625.666 407.577 625.458 407.801L624.642 408.674V408.702H626.331V409.093H624.038ZM628.249 409.142C627.982 409.142 627.754 409.07 627.566 408.924C627.378 408.778 627.234 408.565 627.135 408.287C627.035 408.008 626.986 407.671 626.986 407.276C626.986 406.883 627.035 406.548 627.135 406.27C627.235 405.991 627.38 405.778 627.568 405.631C627.757 405.483 627.984 405.409 628.249 405.409C628.514 405.409 628.74 405.483 628.929 405.631C629.118 405.778 629.262 405.991 629.362 406.27C629.462 406.548 629.512 406.883 629.512 407.276C629.512 407.671 629.463 408.008 629.363 408.287C629.264 408.565 629.12 408.778 628.932 408.924C628.744 409.07 628.516 409.142 628.249 409.142ZM628.249 408.752C628.514 408.752 628.72 408.624 628.866 408.369C629.013 408.113 629.086 407.749 629.086 407.276C629.086 406.961 629.053 406.693 628.985 406.472C628.919 406.251 628.823 406.082 628.698 405.966C628.574 405.85 628.424 405.792 628.249 405.792C627.986 405.792 627.781 405.922 627.633 406.181C627.485 406.439 627.411 406.804 627.411 407.276C627.411 407.59 627.445 407.858 627.511 408.078C627.577 408.298 627.672 408.465 627.796 408.58C627.922 408.695 628.073 408.752 628.249 408.752ZM630.187 409.093V408.773L631.386 407.46C631.527 407.307 631.643 407.173 631.734 407.059C631.825 406.945 631.892 406.837 631.936 406.736C631.981 406.635 632.004 406.528 632.004 406.417C632.004 406.289 631.973 406.179 631.911 406.085C631.851 405.992 631.768 405.92 631.663 405.869C631.558 405.818 631.439 405.792 631.308 405.792C631.168 405.792 631.047 405.821 630.943 405.879C630.84 405.936 630.76 406.016 630.703 406.119C630.647 406.222 630.62 406.342 630.62 406.481H630.201C630.201 406.268 630.25 406.081 630.348 405.92C630.446 405.759 630.58 405.634 630.749 405.544C630.919 405.454 631.111 405.409 631.322 405.409C631.535 405.409 631.724 405.454 631.888 405.544C632.053 405.634 632.182 405.755 632.275 405.908C632.369 406.06 632.415 406.23 632.415 406.417C632.415 406.551 632.391 406.681 632.343 406.809C632.295 406.936 632.212 407.077 632.094 407.233C631.977 407.388 631.814 407.577 631.606 407.801L630.79 408.674V408.702H632.479V409.093H630.187Z" fill="black"/>
<path d="M672.792 409.093V408.773L673.992 407.46C674.132 407.307 674.248 407.173 674.339 407.059C674.431 406.945 674.498 406.837 674.542 406.736C674.587 406.635 674.609 406.528 674.609 406.417C674.609 406.289 674.578 406.179 674.517 406.085C674.457 405.992 674.374 405.92 674.269 405.869C674.163 405.818 674.045 405.792 673.914 405.792C673.774 405.792 673.652 405.821 673.548 405.879C673.445 405.936 673.365 406.016 673.309 406.119C673.253 406.222 673.225 406.342 673.225 406.481H672.806C672.806 406.268 672.855 406.081 672.954 405.92C673.052 405.759 673.186 405.634 673.355 405.544C673.525 405.454 673.716 405.409 673.928 405.409C674.141 405.409 674.329 405.454 674.494 405.544C674.658 405.634 674.787 405.755 674.881 405.908C674.974 406.06 675.021 406.23 675.021 406.417C675.021 406.551 674.997 406.681 674.948 406.809C674.901 406.936 674.818 407.077 674.7 407.233C674.583 407.388 674.42 407.577 674.212 407.801L673.395 408.674V408.702H675.085V409.093H672.792ZM677.003 409.142C676.736 409.142 676.508 409.07 676.32 408.924C676.132 408.778 675.988 408.565 675.889 408.287C675.789 408.008 675.739 407.671 675.739 407.276C675.739 406.883 675.789 406.548 675.889 406.27C675.989 405.991 676.133 405.778 676.321 405.631C676.511 405.483 676.738 405.409 677.003 405.409C677.268 405.409 677.494 405.483 677.682 405.631C677.872 405.778 678.016 405.991 678.115 406.27C678.216 406.548 678.266 406.883 678.266 407.276C678.266 407.671 678.217 408.008 678.117 408.287C678.018 408.565 677.874 408.778 677.686 408.924C677.498 409.07 677.27 409.142 677.003 409.142ZM677.003 408.752C677.268 408.752 677.474 408.624 677.62 408.369C677.767 408.113 677.84 407.749 677.84 407.276C677.84 406.961 677.807 406.693 677.739 406.472C677.673 406.251 677.577 406.082 677.452 405.966C677.328 405.85 677.178 405.792 677.003 405.792C676.74 405.792 676.535 405.922 676.387 406.181C676.239 406.439 676.165 406.804 676.165 407.276C676.165 407.59 676.198 407.858 676.265 408.078C676.331 408.298 676.426 408.465 676.55 408.58C676.676 408.695 676.827 408.752 677.003 408.752ZM678.855 408.348V407.986L680.452 405.459H680.715V406.019H680.538L679.331 407.929V407.957H681.481V408.348H678.855ZM680.566 409.093V408.238V408.069V405.459H680.985V409.093H680.566Z" fill="black"/>
<path d="M694.967 409.093V408.773L696.166 407.46C696.307 407.307 696.423 407.173 696.514 407.059C696.605 406.945 696.673 406.837 696.717 406.736C696.762 406.635 696.784 406.528 696.784 406.417C696.784 406.289 696.753 406.179 696.692 406.085C696.631 405.992 696.549 405.92 696.443 405.869C696.338 405.818 696.22 405.792 696.088 405.792C695.949 405.792 695.827 405.821 695.723 405.879C695.62 405.936 695.54 406.016 695.483 406.119C695.428 406.222 695.4 406.342 695.4 406.481H694.981C694.981 406.268 695.03 406.081 695.128 405.92C695.227 405.759 695.36 405.634 695.529 405.544C695.7 405.454 695.891 405.409 696.103 405.409C696.316 405.409 696.504 405.454 696.669 405.544C696.833 405.634 696.962 405.755 697.055 405.908C697.149 406.06 697.196 406.23 697.196 406.417C697.196 406.551 697.171 406.681 697.123 406.809C697.076 406.936 696.993 407.077 696.874 407.233C696.757 407.388 696.595 407.577 696.387 407.801L695.57 408.674V408.702H697.26V409.093H694.967ZM699.178 409.142C698.91 409.142 698.683 409.07 698.495 408.924C698.306 408.778 698.163 408.565 698.063 408.287C697.964 408.008 697.914 407.671 697.914 407.276C697.914 406.883 697.964 406.548 698.063 406.27C698.164 405.991 698.308 405.778 698.496 405.631C698.686 405.483 698.913 405.409 699.178 405.409C699.443 405.409 699.669 405.483 699.857 405.631C700.047 405.778 700.191 405.991 700.29 406.27C700.391 406.548 700.441 406.883 700.441 407.276C700.441 407.671 700.391 408.008 700.292 408.287C700.193 408.565 700.049 408.778 699.861 408.924C699.673 409.07 699.445 409.142 699.178 409.142ZM699.178 408.752C699.443 408.752 699.648 408.624 699.795 408.369C699.942 408.113 700.015 407.749 700.015 407.276C700.015 406.961 699.981 406.693 699.914 406.472C699.848 406.251 699.752 406.082 699.627 405.966C699.502 405.85 699.353 405.792 699.178 405.792C698.915 405.792 698.71 405.922 698.562 406.181C698.414 406.439 698.34 406.804 698.34 407.276C698.34 407.59 698.373 407.858 698.44 408.078C698.506 408.298 698.601 408.465 698.725 408.58C698.851 408.695 699.001 408.752 699.178 408.752ZM702.251 409.142C702.043 409.142 701.855 409.101 701.688 409.018C701.522 408.935 701.388 408.822 701.287 408.678C701.187 408.533 701.132 408.369 701.122 408.184H701.548C701.565 408.349 701.639 408.485 701.772 408.592C701.906 408.699 702.065 408.752 702.251 408.752C702.4 408.752 702.533 408.717 702.648 408.647C702.766 408.578 702.857 408.482 702.923 408.36C702.991 408.237 703.025 408.098 703.025 407.943C703.025 407.784 702.99 407.643 702.92 407.519C702.851 407.393 702.757 407.295 702.636 407.223C702.515 407.15 702.378 407.114 702.223 407.113C702.111 407.111 701.997 407.128 701.88 407.164C701.763 407.198 701.667 407.243 701.591 407.297L701.179 407.247L701.399 405.459H703.287V405.849H701.768L701.641 406.921H701.662C701.736 406.862 701.83 406.813 701.942 406.774C702.055 406.735 702.172 406.715 702.294 406.715C702.516 406.715 702.714 406.768 702.888 406.875C703.063 406.98 703.2 407.124 703.3 407.308C703.4 407.491 703.45 407.7 703.45 407.936C703.45 408.168 703.398 408.375 703.294 408.557C703.191 408.738 703.049 408.881 702.868 408.986C702.687 409.09 702.482 409.142 702.251 409.142Z" fill="black"/>
</svg>
